<?xml version="1.0" encoding="UTF-8" standalone="no"?>
<svg
   xmlns:dc="http://purl.org/dc/elements/1.1/"
   xmlns:cc="http://creativecommons.org/ns#"
   xmlns:rdf="http://www.w3.org/1999/02/22-rdf-syntax-ns#"
   xmlns:svg="http://www.w3.org/2000/svg"
   xmlns="http://www.w3.org/2000/svg"
   xmlns:sodipodi="http://sodipodi.sourceforge.net/DTD/sodipodi-0.dtd"
   xmlns:inkscape="http://www.inkscape.org/namespaces/inkscape"
   width="67.868767mm"
   height="13.29836mm"
   viewBox="0 0 67.868766 13.29836"
   version="1.1"
   id="svg8"
   inkscape:version="1.0.1 (1.0.1+r74)"
   sodipodi:docname="bioinformatics_v1.svg">
  <defs
     id="defs2">
    <rect
       x="11.326392"
       y="117.29285"
       width="130.70525"
       height="35.844315"
       id="rect835" />
    <rect
       x="11.326392"
       y="117.29285"
       width="130.70525"
       height="35.844315"
       id="rect853" />
  </defs>
  <sodipodi:namedview
     id="base"
     pagecolor="#ffffff"
     bordercolor="#666666"
     borderopacity="1.0"
     inkscape:pageopacity="0.0"
     inkscape:pageshadow="2"
     inkscape:zoom="5.6"
     inkscape:cx="146.78243"
     inkscape:cy="24.849675"
     inkscape:document-units="mm"
     inkscape:current-layer="text833"
     inkscape:document-rotation="0"
     showgrid="false"
     fit-margin-top="0"
     fit-margin-left="0"
     fit-margin-right="0"
     fit-margin-bottom="0"
     inkscape:window-width="2560"
     inkscape:window-height="1050"
     inkscape:window-x="0"
     inkscape:window-y="30"
     inkscape:window-maximized="1" />
  <metadata
     id="metadata5">
    <rdf:RDF>
      <cc:Work
         rdf:about="">
        <dc:format>image/svg+xml</dc:format>
        <dc:type
           rdf:resource="http://purl.org/dc/dcmitype/StillImage" />
        <dc:title></dc:title>
      </cc:Work>
    </rdf:RDF>
  </metadata>
  <g
     inkscape:label="Layer 1"
     inkscape:groupmode="layer"
     id="layer1"
     transform="translate(-15.202506,-81.797268)">
    <g
       aria-label="ACGT"
       transform="translate(-27.316046,-42.534432)"
       id="text833"
       style="font-style:normal;font-weight:normal;font-size:22.5778px;line-height:1.25;font-family:sans-serif;white-space:pre;shape-inside:url(#rect835);fill:#000000;fill-opacity:1;stroke:none">
      <path
         d="m 42.518552,137.63002 6.615296,-13.27574 h 4.447826 l 6.592718,13.27574 h -3.476981 l -1.33209,-2.86738 h -8.082853 l -1.467557,2.86738 z m 5.576717,-5.08 h 6.434673 l -3.093159,-6.16374 h -0.225778 z"
         style="font-style:normal;font-variant:normal;font-weight:normal;font-stretch:normal;font-size:22.5778px;font-family:Goldman;-inkscape-font-specification:Goldman;text-align:center;text-anchor:middle;fill:#de7862;fill-opacity:1"
         id="path843" />
      <path
         d="m 65.886566,137.63002 q -1.603024,0 -2.506136,-0.45155 -0.903112,-0.45156 -1.264357,-1.35467 -0.361245,-0.90311 -0.361245,-2.2352 v -5.03485 q 0,-2.16747 0.970846,-3.18347 0.970845,-1.03858 3.160892,-1.03858 h 6.795918 q 1.557868,0 2.370669,0.18062 0.835379,0.15804 0.835379,0.33867 l -0.451556,1.87395 q -0.383823,-0.0677 -2.280358,-0.13546 -1.873958,-0.0903 -5.463828,-0.0903 h -1.151468 q -1.806224,0 -1.806224,1.60302 v 5.75734 q 0,0.76765 0.383823,1.19662 0.4064,0.4064 1.422401,0.4064 h 0.92569 q 3.747915,0 5.802495,-0.0677 2.077157,-0.0903 2.573869,-0.18062 l 0.92569,1.49013 q 0,0.11289 -0.383823,0.33867 -0.361245,0.22578 -1.354668,0.4064 -0.993423,0.18062 -2.86738,0.18062 z"
         style="font-style:normal;font-variant:normal;font-weight:normal;font-stretch:normal;font-size:22.5778px;font-family:Goldman;-inkscape-font-specification:Goldman;text-align:center;text-anchor:middle;fill:#278b9a;fill-opacity:1"
         id="path845" />
      <path
         d="m 82.932785,137.63002 q -1.603024,0 -2.506136,-0.45155 -0.903112,-0.45156 -1.264357,-1.35467 -0.361245,-0.90311 -0.361245,-2.2352 v -5.03485 q 0,-2.16747 0.970846,-3.18347 0.970845,-1.03858 3.160892,-1.03858 h 6.795918 q 1.557868,0 2.370669,0.18062 0.835379,0.15804 0.835379,0.33867 l -0.451556,1.87395 q -0.383823,-0.0677 -2.280358,-0.13546 -1.873958,-0.0903 -5.463828,-0.0903 h -1.151468 q -1.806224,0 -1.806224,1.60302 v 5.75734 q 0,0.76765 0.383823,1.19662 0.4064,0.4064 1.422401,0.4064 h 0.92569 q 2.167469,0 3.657604,-0.0226 1.490134,-0.0452 2.46098,-0.0677 v -3.07058 l -1.354668,0.0226 -2.957692,0.22578 v -2.21263 h 7.270052 v 6.34436 l 0.225778,0.47414 q 0,0.18062 -0.948268,0.33867 -0.948267,0.13546 -3.206048,0.13546 z"
         style="font-style:normal;font-variant:normal;font-weight:normal;font-stretch:normal;font-size:22.5778px;font-family:Goldman;-inkscape-font-specification:Goldman;text-align:center;text-anchor:middle;fill:#d8af39;fill-opacity:1"
         id="path847" />
      <path
         d="m 101.51427,137.63002 -0.0226,-11.13085 h -5.870232 v -2.16747 h 14.765882 v 2.16747 h -5.89281 v 11.13085 z"
         style="font-style:normal;font-variant:normal;font-weight:normal;font-stretch:normal;font-size:22.5778px;font-family:Goldman;-inkscape-font-specification:Goldman;text-align:center;text-anchor:middle;fill:#5a6f80;fill-opacity:1"
         id="path849" />
    </g>
  </g>
</svg>
