<?xml version="1.0" encoding="UTF-8" standalone="no"?>
<svg
   xmlns:dc="http://purl.org/dc/elements/1.1/"
   xmlns:cc="http://creativecommons.org/ns#"
   xmlns:rdf="http://www.w3.org/1999/02/22-rdf-syntax-ns#"
   xmlns:svg="http://www.w3.org/2000/svg"
   xmlns="http://www.w3.org/2000/svg"
   xmlns:xlink="http://www.w3.org/1999/xlink"
   xmlns:sodipodi="http://sodipodi.sourceforge.net/DTD/sodipodi-0.dtd"
   xmlns:inkscape="http://www.inkscape.org/namespaces/inkscape"
   width="1072.2855"
   height="349.43713"
   viewBox="0 0 283.70887 92.455245"
   version="1.1"
   id="svg8"
   sodipodi:docname="math.svg"
   inkscape:version="1.0.1 (1.0.1+r74)">
  <defs
     id="defs2">
    <g
       id="g7289">
      <symbol
         overflow="visible"
         id="symbol2295">
        <path
           style="stroke:none"
           d=""
           id="path3819" />
      </symbol>
      <symbol
         overflow="visible"
         id="symbol4479">
        <path
           style="stroke:none"
           d="m 1.859375,-2.296875 c 0.296875,0 1.03125,-0.03125 1.53125,-0.234375 0.703125,-0.296875 0.75,-0.890625 0.75,-1.03125 0,-0.4375 -0.375,-0.84375 -1.0625,-0.84375 -1.109375,0 -2.625,0.96875 -2.625,2.71875 0,1.015625 0.59375,1.796875 1.578125,1.796875 1.421875,0 2.25,-1.0625 2.25,-1.171875 0,-0.0625 -0.046875,-0.140625 -0.109375,-0.140625 -0.0625,0 -0.078125,0.03125 -0.140625,0.109375 -0.78125,0.984375 -1.875,0.984375 -1.984375,0.984375 -0.78125,0 -0.875,-0.84375 -0.875,-1.15625 0,-0.125 0.015625,-0.421875 0.15625,-1.03125 z m -0.46875,-0.21875 C 1.78125,-4.03125 2.8125,-4.1875 3.078125,-4.1875 c 0.453125,0 0.734375,0.296875 0.734375,0.625 0,1.046875 -1.59375,1.046875 -2.015625,1.046875 z m 0,0"
           id="path208" />
      </symbol>
      <symbol
         overflow="visible"
         id="symbol1755">
        <path
           style="stroke:none"
           d=""
           id="path9317" />
      </symbol>
      <symbol
         overflow="visible"
         id="symbol4859">
        <path
           style="stroke:none"
           d="m 2.265625,-4.359375 c 0,-0.109375 -0.09375,-0.265625 -0.28125,-0.265625 -0.1875,0 -0.390625,0.1875 -0.390625,0.390625 0,0.109375 0.078125,0.265625 0.28125,0.265625 0.1875,0 0.390625,-0.203125 0.390625,-0.390625 z M 0.84375,-0.8125 c -0.03125,0.09375 -0.0625,0.171875 -0.0625,0.296875 0,0.328125 0.265625,0.578125 0.65625,0.578125 0.6875,0 1,-0.953125 1,-1.0625 0,-0.09375 -0.09375,-0.09375 -0.109375,-0.09375 -0.09375,0 -0.109375,0.046875 -0.140625,0.125 -0.15625,0.5625 -0.453125,0.84375 -0.734375,0.84375 -0.140625,0 -0.171875,-0.09375 -0.171875,-0.25 0,-0.15625 0.046875,-0.28125 0.109375,-0.4375 C 1.46875,-1 1.546875,-1.1875 1.609375,-1.375 1.671875,-1.546875 1.9375,-2.171875 1.953125,-2.265625 1.984375,-2.328125 2,-2.40625 2,-2.484375 2,-2.8125 1.71875,-3.078125 1.34375,-3.078125 0.640625,-3.078125 0.328125,-2.125 0.328125,-2 c 0,0.078125 0.09375,0.078125 0.125,0.078125 0.09375,0 0.09375,-0.03125 0.125,-0.109375 C 0.75,-2.625 1.0625,-2.875 1.3125,-2.875 c 0.109375,0 0.171875,0.046875 0.171875,0.234375 0,0.171875 -0.03125,0.265625 -0.203125,0.703125 z m 0,0"
           id="path2828" />
      </symbol>
      <symbol
         overflow="visible"
         id="symbol3978">
        <path
           style="stroke:none"
           d="M 2.171875,-2.53125 H 3 c -0.109375,0.421875 -0.265625,1.046875 -0.265625,1.609375 0,0.28125 0.046875,0.46875 0.078125,0.609375 0.109375,0.359375 0.203125,0.375 0.3125,0.375 0.171875,0 0.328125,-0.140625 0.328125,-0.3125 0,-0.046875 -0.015625,-0.078125 -0.046875,-0.140625 C 3.265625,-0.65625 3.140625,-1.046875 3.140625,-1.625 c 0,-0.125 0,-0.40625 0.09375,-0.90625 h 0.875 c 0.125,0 0.1875,0 0.265625,-0.046875 0.09375,-0.078125 0.109375,-0.1875 0.109375,-0.21875 C 4.484375,-3 4.3125,-3 4.1875,-3 h -2.625 c -0.28125,0 -0.484375,0.0625 -0.796875,0.359375 -0.1875,0.15625 -0.453125,0.53125 -0.453125,0.59375 0,0.078125 0.09375,0.078125 0.125,0.078125 0.078125,0 0.078125,-0.015625 0.125,-0.078125 C 0.90625,-2.53125 1.34375,-2.53125 1.5,-2.53125 h 0.421875 c -0.21875,0.765625 -0.59375,1.59375 -0.796875,2.015625 -0.046875,0.078125 -0.109375,0.234375 -0.140625,0.25 0,0.03125 -0.015625,0.0625 -0.015625,0.109375 0,0.109375 0.078125,0.21875 0.25,0.21875 0.265625,0 0.34375,-0.3125 0.515625,-0.9375 z m 0,0"
           id="path1296" />
      </symbol>
      <symbol
         overflow="visible"
         id="symbol9720">
        <path
           style="stroke:none"
           d=""
           id="path2575" />
      </symbol>
      <symbol
         overflow="visible"
         id="symbol9158">
        <path
           style="stroke:none"
           d="M 1.578125,-1.734375 C 1.578125,-2 1.375,-2.140625 1.1875,-2.140625 c -0.234375,0 -0.40625,0.1875 -0.40625,0.390625 0,0.25 0.203125,0.40625 0.390625,0.40625 0.234375,0 0.40625,-0.1875 0.40625,-0.390625 z m 0,0"
           id="path2680" />
      </symbol>
      <symbol
         overflow="visible"
         id="symbol6252">
        <path
           style="stroke:none"
           d=""
           id="path8833" />
      </symbol>
      <symbol
         overflow="visible"
         id="symbol8679">
        <path
           style="stroke:none"
           d="m 4.078125,-2.296875 h 2.78125 C 7,-2.296875 7.1875,-2.296875 7.1875,-2.5 7.1875,-2.6875 7,-2.6875 6.859375,-2.6875 h -2.78125 v -2.796875 c 0,-0.140625 0,-0.328125 -0.203125,-0.328125 -0.203125,0 -0.203125,0.1875 -0.203125,0.328125 V -2.6875 h -2.78125 c -0.140625,0 -0.328125,0 -0.328125,0.1875 0,0.203125 0.1875,0.203125 0.328125,0.203125 h 2.78125 V 0.5 c 0,0.140625 0,0.328125 0.203125,0.328125 0.203125,0 0.203125,-0.1875 0.203125,-0.328125 z m 0,0"
           id="path829" />
      </symbol>
      <symbol
         overflow="visible"
         id="symbol4524">
        <path
           style="stroke:none"
           d="m 2.9375,-6.375 c 0,-0.25 0,-0.265625 -0.234375,-0.265625 C 2.078125,-6 1.203125,-6 0.890625,-6 v 0.3125 c 0.203125,0 0.78125,0 1.296875,-0.265625 v 5.171875 c 0,0.359375 -0.03125,0.46875 -0.921875,0.46875 h -0.3125 V 0 c 0.34375,-0.03125 1.203125,-0.03125 1.609375,-0.03125 0.390625,0 1.265625,0 1.609375,0.03125 v -0.3125 h -0.3125 c -0.90625,0 -0.921875,-0.109375 -0.921875,-0.46875 z m 0,0"
           id="path3059" />
      </symbol>
    </g>
    <g
       id="g6295">
      <symbol
         overflow="visible"
         id="symbol3194">
        <path
           style="stroke:none"
           d=""
           id="path7721" />
      </symbol>
      <symbol
         overflow="visible"
         id="symbol2555">
        <path
           style="stroke:none"
           d="m 2.21875,-2.171875 c 0.65625,0 1.3125,-0.0625 1.734375,-0.203125 C 4.796875,-2.65625 4.9375,-3.234375 4.9375,-3.546875 4.9375,-4.125 4.390625,-4.5 3.5625,-4.5 c -1.796875,0 -3.078125,1.234375 -3.078125,2.78125 0,1.15625 0.765625,1.796875 2.09375,1.796875 0.25,0 0.9375,-0.015625 1.53125,-0.234375 0.578125,-0.234375 0.984375,-0.640625 0.984375,-0.765625 0,-0.078125 -0.15625,-0.25 -0.25,-0.25 -0.0625,0 -0.078125,0.03125 -0.15625,0.109375 C 4.15625,-0.5 3.375,-0.28125 2.609375,-0.28125 1.890625,-0.28125 1.625,-0.671875 1.625,-1.25 c 0,-0.1875 0.046875,-0.515625 0.15625,-0.921875 z M 1.859375,-2.53125 c 0.1875,-0.734375 0.421875,-1 0.59375,-1.15625 0.34375,-0.34375 0.8125,-0.453125 1.109375,-0.453125 0.359375,0 0.78125,0.15625 0.78125,0.609375 0,1 -1.515625,1 -2.484375,1 z m 0,0"
           id="path9744" />
      </symbol>
      <symbol
         overflow="visible"
         id="symbol1624">
        <path
           style="stroke:none"
           d=""
           id="path6666" />
      </symbol>
      <symbol
         overflow="visible"
         id="symbol2854">
        <path
           style="stroke:none"
           d="m 2.953125,-1.03125 c 0,-0.125 -0.125,-0.125 -0.234375,-0.125 -0.171875,0 -0.1875,0.015625 -0.21875,0.15625 -0.125,0.421875 -0.4375,0.734375 -0.71875,0.734375 -0.09375,0 -0.109375,-0.046875 -0.109375,-0.171875 0,-0.125 0.03125,-0.21875 0.0625,-0.296875 0.0625,-0.171875 0.0625,-0.171875 0.15625,-0.40625 l 0.4375,-1.015625 c 0.0625,-0.203125 0.078125,-0.234375 0.078125,-0.359375 0,-0.453125 -0.515625,-0.640625 -0.890625,-0.640625 -0.796875,0 -1.203125,0.890625 -1.203125,1.09375 0,0.125 0.109375,0.125 0.21875,0.125 0.171875,0 0.1875,-0.015625 0.234375,-0.15625 0.125,-0.421875 0.421875,-0.734375 0.703125,-0.734375 0.09375,0 0.125,0.046875 0.125,0.171875 0,0.125 -0.046875,0.21875 -0.078125,0.296875 -0.0625,0.171875 -0.0625,0.171875 -0.15625,0.40625 L 0.9375,-0.9375 c -0.078125,0.203125 -0.09375,0.234375 -0.09375,0.359375 0,0.453125 0.515625,0.640625 0.890625,0.640625 0.796875,0 1.21875,-0.890625 1.21875,-1.09375 z M 2.625,-4.46875 c 0,-0.265625 -0.203125,-0.375 -0.375,-0.375 -0.28125,0 -0.5625,0.265625 -0.5625,0.53125 0,0.171875 0.125,0.375 0.390625,0.375 0.265625,0 0.546875,-0.21875 0.546875,-0.53125 z m 0,0"
           id="path1372" />
      </symbol>
      <symbol
         overflow="visible"
         id="symbol4143">
        <path
           style="stroke:none"
           d="M 2.515625,-2.34375 H 3.3125 c -0.0625,0.234375 -0.1875,0.796875 -0.1875,1.25 0,0.5 0.1875,1.15625 0.578125,1.15625 0.234375,0 0.515625,-0.25 0.515625,-0.5 0,-0.109375 -0.046875,-0.1875 -0.109375,-0.28125 C 3.75,-1.234375 3.75,-1.78125 3.75,-1.96875 c 0,0 0,-0.21875 0.015625,-0.375 h 0.9375 c 0.15625,0 0.25,0 0.390625,-0.109375 C 5.140625,-2.5 5.234375,-2.609375 5.234375,-2.78125 c 0,-0.3125 -0.265625,-0.3125 -0.390625,-0.3125 H 1.765625 c -0.171875,0 -0.5,0 -0.953125,0.390625 -0.171875,0.125 -0.515625,0.484375 -0.515625,0.59375 0,0.125 0.09375,0.125 0.21875,0.125 0.125,0 0.140625,0 0.1875,-0.0625 0.125,-0.125 0.28125,-0.296875 0.890625,-0.296875 h 0.453125 c -0.1875,0.625 -0.609375,1.375 -0.8125,1.71875 -0.078125,0.125 -0.125,0.21875 -0.125,0.328125 0,0.171875 0.125,0.359375 0.375,0.359375 0.21875,0 0.390625,-0.15625 0.453125,-0.3125 0.03125,-0.0625 0.125,-0.328125 0.1875,-0.59375 z m 0,0"
           id="path1034" />
      </symbol>
      <symbol
         overflow="visible"
         id="symbol7323">
        <path
           style="stroke:none"
           d=""
           id="path6298" />
      </symbol>
      <symbol
         overflow="visible"
         id="symbol7138">
        <path
           style="stroke:none"
           d="m 1.859375,-1.734375 c 0,-0.34375 -0.265625,-0.578125 -0.5625,-0.578125 -0.328125,0 -0.578125,0.265625 -0.578125,0.5625 0,0.328125 0.28125,0.578125 0.578125,0.578125 0.3125,0 0.5625,-0.28125 0.5625,-0.5625 z m 0,0"
           id="path2085" />
      </symbol>
      <symbol
         overflow="visible"
         id="symbol1076">
        <path
           style="stroke:none"
           d=""
           id="path6264" />
      </symbol>
      <symbol
         overflow="visible"
         id="symbol8111">
        <path
           style="stroke:none"
           d="m 4.75,-2.1875 h 3.078125 c 0.140625,0 0.4375,0 0.4375,-0.3125 0,-0.296875 -0.296875,-0.296875 -0.4375,-0.296875 H 4.75 v -3.09375 c 0,-0.125 0,-0.421875 -0.296875,-0.421875 -0.3125,0 -0.3125,0.296875 -0.3125,0.421875 v 3.09375 H 1.0625 c -0.140625,0 -0.421875,0 -0.421875,0.296875 0,0.3125 0.296875,0.3125 0.421875,0.3125 h 3.078125 v 3.078125 c 0,0.125 0,0.421875 0.3125,0.421875 C 4.75,1.3125 4.75,1.03125 4.75,0.890625 Z m 0,0"
           id="path2664" />
      </symbol>
      <symbol
         overflow="visible"
         id="symbol3631">
        <path
           style="stroke:none"
           d="m 3.53125,-6.203125 c 0,-0.234375 0,-0.328125 -0.265625,-0.328125 -0.109375,0 -0.125,0 -0.21875,0.078125 -0.765625,0.5625 -1.796875,0.5625 -2,0.5625 H 0.84375 v 0.46875 H 1.046875 C 1.203125,-5.421875 1.75,-5.4375 2.34375,-5.625 v 5.15625 H 0.953125 V 0 c 0.4375,-0.03125 1.5,-0.03125 1.984375,-0.03125 0.484375,0 1.546875,0 1.984375,0.03125 V -0.46875 H 3.53125 Z m 0,0"
           id="path5627" />
      </symbol>
    </g>
  </defs>
  <sodipodi:namedview
     id="base"
     pagecolor="#ffffff"
     bordercolor="#666666"
     borderopacity="1.0"
     inkscape:pageopacity="0.0"
     inkscape:pageshadow="2"
     inkscape:zoom="0.49497475"
     inkscape:cx="1024.1758"
     inkscape:cy="540.18661"
     inkscape:document-units="mm"
     inkscape:current-layer="g2276"
     inkscape:document-rotation="0"
     showgrid="false"
     inkscape:window-width="2560"
     inkscape:window-height="1050"
     inkscape:window-x="0"
     inkscape:window-y="30"
     inkscape:window-maximized="1"
     units="px"
     fit-margin-top="0"
     fit-margin-left="0"
     fit-margin-right="0"
     fit-margin-bottom="0" />
  <metadata
     id="metadata5">
    <rdf:RDF>
      <cc:Work
         rdf:about="">
        <dc:format>image/svg+xml</dc:format>
        <dc:type
           rdf:resource="http://purl.org/dc/dcmitype/StillImage" />
        <dc:title></dc:title>
      </cc:Work>
    </rdf:RDF>
  </metadata>
  <g
     inkscape:label="Layer 1"
     inkscape:groupmode="layer"
     id="layer1"
     transform="translate(-57.691121,-143.92609)">
    <g
       inkscape:label=""
       transform="matrix(10.625144,0,0,10.625144,-3049.8445,-765.71678)"
       id="g870">
      <g
         id="g968">
        <g
           id="g2276"
           transform="matrix(0.84734064,0,0,0.84734064,46.672045,13.621166)">
          <g
             id="g1081"
             transform="translate(1.9102173)">
            <g
               style="fill:#e75b64;fill-opacity:1;stroke-width:0.999987;stroke-miterlimit:4;stroke-dasharray:none"
               id="g451">
              <use
                 xlink:href="#symbol2555"
                 x="287.68701"
                 y="93.917999"
                 id="use5828"
                 width="100%"
                 height="100%"
                 style="fill:#e75b64;fill-opacity:1;stroke-width:0.999987;stroke-miterlimit:4;stroke-dasharray:none" />
            </g>
            <g
               style="fill:#d8af39;fill-opacity:1"
               id="g1978">
              <use
                 xlink:href="#symbol2854"
                 x="293.202"
                 y="89.805"
                 id="use3997"
                 width="100%"
                 height="100%"
                 style="fill:#d8af39;fill-opacity:1" />
            </g>
            <g
               style="fill:#278b9a;fill-opacity:1"
               id="g5199">
              <use
                 xlink:href="#symbol7138"
                 x="296.46399"
                 y="89.805"
                 id="use1095"
                 width="100%"
                 height="100%"
                 style="fill:#278b9a;fill-opacity:1" />
            </g>
            <g
               style="fill:#d8af39;fill-opacity:1"
               id="g8994">
              <use
                 xlink:href="#symbol4143"
                 x="299.05099"
                 y="89.805"
                 id="use6962"
                 width="100%"
                 height="100%"
                 style="fill:#d8af39;fill-opacity:1" />
            </g>
            <g
               style="fill:#000000;fill-opacity:1"
               id="g1405">
              <use
                 xlink:href="#symbol8111"
                 x="307.45999"
                 y="93.917999"
                 id="use7173"
                 width="100%"
                 height="100%"
                 style="fill:#278b9a;fill-opacity:1"
                 transform="translate(-2.4685885)" />
            </g>
            <g
               style="fill:#e75b64;fill-opacity:1"
               id="g2335"
               transform="translate(-3.8204342)">
              <use
                 xlink:href="#symbol3631"
                 x="318.58224"
                 y="93.917999"
                 id="use3543"
                 width="100%"
                 height="100%"
                 style="fill:#e75b64;fill-opacity:1" />
            </g>
          </g>
        </g>
      </g>
    </g>
  </g>
</svg>
