<?xml version="1.0" encoding="UTF-8" standalone="no"?>
<svg
   xmlns:dc="http://purl.org/dc/elements/1.1/"
   xmlns:cc="http://creativecommons.org/ns#"
   xmlns:rdf="http://www.w3.org/1999/02/22-rdf-syntax-ns#"
   xmlns:svg="http://www.w3.org/2000/svg"
   xmlns="http://www.w3.org/2000/svg"
   xmlns:xlink="http://www.w3.org/1999/xlink"
   xmlns:sodipodi="http://sodipodi.sourceforge.net/DTD/sodipodi-0.dtd"
   xmlns:inkscape="http://www.inkscape.org/namespaces/inkscape"
   sodipodi:docname="math_v1.svg"
   inkscape:version="1.0.1 (1.0.1+r74)"
   id="svg8"
   version="1.1"
   viewBox="0 0 210 297"
   height="1122.5197"
   width="793.70081">
  <defs
     id="defs2">
    <inkscape:path-effect
       effect="bend_path"
       id="path-effect1099"
       is_visible="true"
       lpeversion="1"
       bendpath="m 180.37917,112.77647 c 50.81155,-41.059571 77.76935,-25.147163 115.7208,0"
       prop_scale="0.99670358"
       scale_y_rel="false"
       vertical="false"
       hide_knot="false"
       bendpath-nodetypes="cc" />
    <g
       id="g748">
      <symbol
         overflow="visible"
         id="symbol5271">
        <path
           style="stroke:none;"
           d=""
           id="path7912" />
      </symbol>
      <symbol
         overflow="visible"
         id="symbol5040">
        <path
           style="stroke:none;"
           d="M 5.34375 -4 C 4.984375 -3.890625 4.8125 -3.5625 4.8125 -3.3125 C 4.8125 -3.09375 4.96875 -2.84375 5.296875 -2.84375 C 5.65625 -2.84375 6.015625 -3.140625 6.015625 -3.625 C 6.015625 -4.15625 5.5 -4.5 4.890625 -4.5 C 4.3125 -4.5 3.953125 -4.078125 3.8125 -3.890625 C 3.5625 -4.3125 3.015625 -4.5 2.4375 -4.5 C 1.1875 -4.5 0.515625 -3.28125 0.515625 -2.953125 C 0.515625 -2.8125 0.65625 -2.8125 0.75 -2.8125 C 0.875 -2.8125 0.9375 -2.8125 0.984375 -2.9375 C 1.265625 -3.84375 1.984375 -4.140625 2.390625 -4.140625 C 2.765625 -4.140625 2.953125 -3.96875 2.953125 -3.65625 C 2.953125 -3.453125 2.8125 -2.90625 2.71875 -2.546875 L 2.375 -1.1875 C 2.234375 -0.578125 1.875 -0.28125 1.53125 -0.28125 C 1.484375 -0.28125 1.25 -0.28125 1.0625 -0.421875 C 1.421875 -0.53125 1.59375 -0.875 1.59375 -1.109375 C 1.59375 -1.328125 1.421875 -1.578125 1.09375 -1.578125 C 0.75 -1.578125 0.375 -1.28125 0.375 -0.796875 C 0.375 -0.265625 0.90625 0.078125 1.515625 0.078125 C 2.078125 0.078125 2.453125 -0.34375 2.578125 -0.53125 C 2.828125 -0.109375 3.390625 0.078125 3.953125 0.078125 C 5.21875 0.078125 5.890625 -1.140625 5.890625 -1.46875 C 5.890625 -1.609375 5.734375 -1.609375 5.65625 -1.609375 C 5.53125 -1.609375 5.46875 -1.609375 5.421875 -1.484375 C 5.140625 -0.578125 4.421875 -0.28125 4 -0.28125 C 3.625 -0.28125 3.453125 -0.453125 3.453125 -0.78125 C 3.453125 -0.984375 3.578125 -1.515625 3.671875 -1.890625 C 3.734375 -2.140625 3.96875 -3.078125 4.015625 -3.234375 C 4.171875 -3.84375 4.515625 -4.140625 4.859375 -4.140625 C 4.921875 -4.140625 5.140625 -4.140625 5.34375 -4 Z M 5.34375 -4 "
           id="path2043" />
      </symbol>
    </g>
    <g
       id="g7685">
      <symbol
         overflow="visible"
         id="symbol1127">
        <path
           style="stroke:none;"
           d=""
           id="path3566" />
      </symbol>
      <symbol
         overflow="visible"
         id="symbol9888">
        <path
           style="stroke:none;"
           d="M 5.75 -3.765625 C 5.796875 -3.9375 5.796875 -3.953125 5.796875 -3.984375 C 5.796875 -4.203125 5.640625 -4.421875 5.328125 -4.421875 C 4.8125 -4.421875 4.6875 -3.953125 4.625 -3.6875 L 4.359375 -2.65625 C 4.25 -2.171875 4.0625 -1.40625 3.953125 -1 C 3.890625 -0.78125 3.59375 -0.53125 3.5625 -0.515625 C 3.453125 -0.453125 3.203125 -0.28125 2.875 -0.28125 C 2.296875 -0.28125 2.28125 -0.78125 2.28125 -1 C 2.28125 -1.609375 2.59375 -2.390625 2.875 -3.109375 C 2.96875 -3.375 3 -3.4375 3 -3.609375 C 3 -4.1875 2.421875 -4.5 1.875 -4.5 C 0.8125 -4.5 0.3125 -3.15625 0.3125 -2.953125 C 0.3125 -2.8125 0.46875 -2.8125 0.5625 -2.8125 C 0.671875 -2.8125 0.75 -2.8125 0.78125 -2.9375 C 1.109375 -4.046875 1.671875 -4.140625 1.8125 -4.140625 C 1.890625 -4.140625 1.984375 -4.140625 1.984375 -3.9375 C 1.984375 -3.703125 1.875 -3.453125 1.8125 -3.296875 C 1.421875 -2.296875 1.21875 -1.71875 1.21875 -1.21875 C 1.21875 -0.078125 2.21875 0.078125 2.796875 0.078125 C 3.046875 0.078125 3.390625 0.046875 3.765625 -0.21875 C 3.484375 1 2.734375 1.65625 2.046875 1.65625 C 1.90625 1.65625 1.640625 1.640625 1.4375 1.515625 C 1.75 1.390625 1.90625 1.109375 1.90625 0.84375 C 1.90625 0.484375 1.625 0.390625 1.421875 0.390625 C 1.0625 0.390625 0.703125 0.703125 0.703125 1.140625 C 0.703125 1.65625 1.234375 2.015625 2.046875 2.015625 C 3.1875 2.015625 4.5 1.25 4.8125 0.015625 Z M 5.75 -3.765625 "
           id="path4279" />
      </symbol>
    </g>
    <g
       id="g5932">
      <symbol
         overflow="visible"
         id="symbol2810">
        <path
           style="stroke:none;"
           d=""
           id="path7848" />
      </symbol>
      <symbol
         overflow="visible"
         id="symbol6236">
        <path
           style="stroke:none;"
           d="M 2.40625 -3.40625 C 2.546875 -3.40625 2.671875 -3.40625 2.8125 -3.40625 C 3.203125 -3.421875 3.703125 -3.453125 4.09375 -3.46875 C 3.8125 -3.203125 3.65625 -3.046875 2.65625 -2.28125 C 0.640625 -0.75 0.421875 -0.09375 0.421875 -0.0625 C 0.421875 0.078125 0.5625 0.078125 0.640625 0.078125 C 0.8125 0.078125 0.8125 0.0625 0.890625 -0.03125 C 1.25 -0.53125 1.609375 -0.59375 1.78125 -0.59375 C 2.046875 -0.59375 2.265625 -0.421875 2.421875 -0.3125 C 2.734375 -0.09375 2.984375 0.078125 3.359375 0.078125 C 4.46875 0.078125 5.203125 -1.140625 5.203125 -1.515625 C 5.203125 -1.65625 5.03125 -1.65625 4.96875 -1.65625 C 4.890625 -1.65625 4.78125 -1.65625 4.75 -1.5625 C 4.671875 -1.375 4.5625 -1.125 3.890625 -1.046875 C 3.84375 -1.03125 1.890625 -0.953125 1.671875 -0.953125 C 1.953125 -1.21875 2.109375 -1.375 3.125 -2.140625 C 5.140625 -3.671875 5.359375 -4.328125 5.359375 -4.359375 C 5.359375 -4.5 5.21875 -4.5 5.140625 -4.5 C 4.984375 -4.5 4.96875 -4.5 4.90625 -4.40625 C 4.671875 -4.0625 4.46875 -3.828125 4.234375 -3.828125 C 3.984375 -3.828125 3.765625 -3.984375 3.53125 -4.140625 C 3.296875 -4.328125 3.046875 -4.5 2.671875 -4.5 C 1.796875 -4.5 1.21875 -3.625 1.21875 -3.3125 C 1.21875 -3.171875 1.390625 -3.171875 1.46875 -3.171875 C 1.5625 -3.171875 1.671875 -3.171875 1.6875 -3.296875 C 1.828125 -3.375 1.90625 -3.375 2.203125 -3.40625 Z M 2.40625 -3.40625 "
           id="path5397" />
      </symbol>
    </g>
  </defs>
  <sodipodi:namedview
     id="base"
     pagecolor="#ffffff"
     bordercolor="#666666"
     borderopacity="1.0"
     inkscape:pageopacity="0.0"
     inkscape:pageshadow="2"
     inkscape:zoom="0.70710678"
     inkscape:cx="-86.059962"
     inkscape:cy="451.55966"
     inkscape:document-units="px"
     inkscape:current-layer="layer1"
     inkscape:document-rotation="0"
     showgrid="false"
     units="px"
     showborder="false"
     inkscape:snap-smooth-nodes="true"
     inkscape:window-width="2560"
     inkscape:window-height="1050"
     inkscape:window-x="0"
     inkscape:window-y="30"
     inkscape:window-maximized="1" />
  <metadata
     id="metadata5">
    <rdf:RDF>
      <cc:Work
         rdf:about="">
        <dc:format>image/svg+xml</dc:format>
        <dc:type
           rdf:resource="http://purl.org/dc/dcmitype/StillImage" />
        <dc:title></dc:title>
      </cc:Work>
    </rdf:RDF>
  </metadata>
  <g
     inkscape:label="Layer 1"
     inkscape:groupmode="layer"
     id="layer1">
    <path
       sodipodi:type="star"
       style="fill:#aaccff;stroke:#000000;stroke-width:5.56128698;stroke-miterlimit:4;stroke-dasharray:none"
       id="path887"
       sodipodi:sides="3"
       sodipodi:cx="98.935753"
       sodipodi:cy="122.09637"
       sodipodi:r1="170.92303"
       sodipodi:r2="85.461525"
       sodipodi:arg1="1.5707963"
       sodipodi:arg2="2.6179939"
       inkscape:flatsided="true"
       inkscape:rounded="0"
       inkscape:randomized="0"
       d="M 98.935758,293.0194 -49.087939,36.634854 l 296.047379,-8e-6 z"
       inkscape:transform-center-y="32.699322"
       transform="matrix(0.66551634,0,0,0.76524086,-60.556487,7.6178015)" />
    <ellipse
       style="fill:#ffffff;stroke:#000000;stroke-width:3.96875001;stroke-miterlimit:4;stroke-dasharray:none;fill-opacity:1"
       id="path859"
       cx="5.2868814"
       cy="96.719337"
       rx="60.361599"
       ry="60.890392" />
    <ellipse
       style="fill:#dbdee3;stroke:none;stroke-width:3.52530834;stroke-miterlimit:4;stroke-dasharray:none;fill-opacity:1;opacity:1"
       id="ellipse1401"
       cx="5.2868814"
       cy="96.719337"
       rx="60.361599"
       ry="60.890392" />
    <ellipse
       style="opacity:1;fill:#b7bec8;fill-opacity:1;stroke:none;stroke-width:2.81449;stroke-miterlimit:4;stroke-dasharray:none"
       id="ellipse1403"
       cx="5.2868814"
       cy="96.719337"
       rx="48.190765"
       ry="48.612938" />
    <ellipse
       style="opacity:1;fill:#939dac;fill-opacity:1;stroke:none;stroke-width:1.91825;stroke-miterlimit:4;stroke-dasharray:none"
       id="ellipse1405"
       cx="5.2868814"
       cy="96.719337"
       rx="32.844933"
       ry="33.132668" />
    <ellipse
       style="opacity:1;fill:#6f7c91;fill-opacity:1;stroke:none;stroke-width:1.24424;stroke-miterlimit:4;stroke-dasharray:none"
       id="ellipse1407"
       cx="5.2868814"
       cy="96.719337"
       rx="21.304365"
       ry="21.491001" />
    <ellipse
       style="opacity:1;fill:#1c1f24;fill-opacity:1;stroke:none;stroke-width:0.502521;stroke-miterlimit:4;stroke-dasharray:none"
       id="ellipse1409"
       cx="5.2868814"
       cy="96.719337"
       rx="8.6043653"
       ry="8.6797438" />
    <g
       id="g1397"
       transform="translate(-187.61064,-13.658583)">
      <g
         id="g1115"
         transform="matrix(0,0.39648633,-0.39648633,0,244.28648,-13.13577)"
         inkscape:transform-center-x="-12.102444"
         inkscape:transform-center-y="-28.977359">
        <path
           id="path1101"
           style="fill:#00aad4;stroke:none;stroke-width:0.0525585;stroke-miterlimit:4;stroke-dasharray:none"
           d="m 187.03694,107.60235 c 1.40338,1.88695 1.0247,4.54266 -0.78159,5.94505 -1.8108,1.40588 -4.47929,1.1152 -5.95387,-0.70812 -1.47342,-1.82188 -1.18488,-4.52015 0.72424,-6.01002 1.91356,-1.49333 4.60673,-1.11533 6.01122,0.77309 z" />
        <path
           id="path1103"
           style="fill:#8800aa;stroke:none;stroke-width:0.1108;stroke-miterlimit:4;stroke-dasharray:none"
           d="m 296.01668,112.72128 c -2.73717,4.13093 -8.30385,5.23011 -12.38226,2.58389 -4.02349,-2.61059 -5.285,-8.09857 -2.72035,-12.31138 2.57596,-4.231398 8.16952,-5.519418 12.47405,-2.72948 4.25029,2.75478 5.35374,8.34415 2.62856,12.45697 z" />
        <path
           style="fill:#1292ce;fill-opacity:1;stroke:none;stroke-width:0.0606731px;stroke-miterlimit:4;stroke-dasharray:none;stroke-opacity:1"
           d="m 200.9779,98.388103 c 1.34036,2.344867 0.56266,5.317747 -1.60679,6.684187 -2.2098,1.39186 -5.20262,0.78201 -6.72768,-1.46278 -1.52505,-2.24478 -0.88136,-5.35364 1.51069,-6.849882 2.39257,-1.495397 5.48096,-0.720684 6.82378,1.628475 z"
           id="path1105" />
        <path
           style="fill:#2877c7;fill-opacity:1;stroke:none;stroke-width:0.0699525px;stroke-miterlimit:4;stroke-dasharray:none;stroke-opacity:1"
           d="m 218.35243,90.603348 c 0.76182,2.419462 -0.15575,4.989213 -1.87594,6.373984 0,0 0,0 0,0 -0.40261,0.321035 -0.85549,0.587296 -1.35538,0.786142 -2.71591,1.080327 -5.94587,-0.157535 -7.28462,-2.970389 -1.33918,-2.813752 -0.014,-6.266418 3.07618,-7.516161 0.56916,-0.230181 1.15273,-0.367331 1.73046,-0.417633 0,0 0,0 0,0 2.63512,-0.234242 4.94107,1.304199 5.7093,3.744057 z"
           id="path1107" />
        <path
           style="fill:#3f5ac0;fill-opacity:1;stroke:none;stroke-width:0.0797291px;stroke-miterlimit:4;stroke-dasharray:none;stroke-opacity:1"
           d="m 238.15821,87.630478 c -0.069,3.531686 -2.8458,6.365113 -5.84365,6.650282 -3e-4,2.8e-5 -5.9e-4,5.6e-5 -8.9e-4,8.4e-5 -3.16413,0.30104 -6.28694,-1.979797 -6.98446,-5.471936 l -2e-4,-9.78e-4 c -0.69373,-3.478254 1.70453,-6.971135 5.79116,-7.345515 3.93095,-0.360119 7.10742,2.615786 7.03804,6.168063 z"
           id="path1109" />
        <path
           style="fill:#573db9;fill-opacity:1;stroke:none;stroke-width:0.0898433px;stroke-miterlimit:4;stroke-dasharray:none;stroke-opacity:1"
           d="m 258.44844,91.694434 c -1.37962,3.770993 -5.28836,5.748497 -8.75353,4.845368 -3.26606,-0.851236 -5.84555,-4.481567 -5.31061,-8.427276 l 1.3e-4,-9.87e-4 c 0.53822,-3.969936 4.62872,-6.711786 8.9341,-5.609003 3.6e-4,9.2e-5 7.2e-4,1.83e-4 10e-4,2.75e-4 4.45701,1.142753 6.50255,5.436809 5.12884,9.191623 z"
           id="path1111" />
        <path
           style="fill:#6f1eb1;fill-opacity:1;stroke:none;stroke-width:0.100216px;stroke-miterlimit:4;stroke-dasharray:none;stroke-opacity:1"
           d="m 277.63097,101.03389 c -2.25709,3.86062 -7.08538,5.19993 -10.84028,3.25183 -2.8e-4,-1.4e-4 -5.6e-4,-2.9e-4 -8.4e-4,-4.3e-4 -0.44321,-0.23007 -0.85405,-0.49696 -1.23186,-0.79558 0,0 0,0 0,0 -2.73094,-2.14538 -3.91869,-6.293114 -2.36034,-9.897427 l 4e-4,-9.17e-4 c 1.57368,-3.639773 5.57945,-5.503366 9.55026,-4.293854 0,0 0,0 0,0 0.51679,0.154567 1.02711,0.360679 1.52318,0.619766 4.27167,2.230982 5.61123,7.265114 3.35948,11.116612 z"
           id="path1113" />
      </g>
      <g
         id="g1131"
         transform="matrix(-0.19824316,0.34336723,-0.34336723,-0.19824316,299.15851,29.106406)"
         inkscape:transform-center-x="-12.102444"
         inkscape:transform-center-y="-28.977359">
        <path
           id="path1117"
           style="fill:#00aad4;stroke:none;stroke-width:0.0525585;stroke-miterlimit:4;stroke-dasharray:none"
           d="m 187.03694,107.60235 c 1.40338,1.88695 1.0247,4.54266 -0.78159,5.94505 -1.8108,1.40588 -4.47929,1.1152 -5.95387,-0.70812 -1.47342,-1.82188 -1.18488,-4.52015 0.72424,-6.01002 1.91356,-1.49333 4.60673,-1.11533 6.01122,0.77309 z" />
        <path
           id="path1119"
           style="fill:#8800aa;stroke:none;stroke-width:0.1108;stroke-miterlimit:4;stroke-dasharray:none"
           d="m 296.01668,112.72128 c -2.73717,4.13093 -8.30385,5.23011 -12.38226,2.58389 -4.02349,-2.61059 -5.285,-8.09857 -2.72035,-12.31138 2.57596,-4.231398 8.16952,-5.519418 12.47405,-2.72948 4.25029,2.75478 5.35374,8.34415 2.62856,12.45697 z" />
        <path
           style="fill:#1292ce;fill-opacity:1;stroke:none;stroke-width:0.0606731px;stroke-miterlimit:4;stroke-dasharray:none;stroke-opacity:1"
           d="m 200.9779,98.388103 c 1.34036,2.344867 0.56266,5.317747 -1.60679,6.684187 -2.2098,1.39186 -5.20262,0.78201 -6.72768,-1.46278 -1.52505,-2.24478 -0.88136,-5.35364 1.51069,-6.849882 2.39257,-1.495397 5.48096,-0.720684 6.82378,1.628475 z"
           id="path1121" />
        <path
           style="fill:#2877c7;fill-opacity:1;stroke:none;stroke-width:0.0699525px;stroke-miterlimit:4;stroke-dasharray:none;stroke-opacity:1"
           d="m 218.35243,90.603348 c 0.76182,2.419462 -0.15575,4.989213 -1.87594,6.373984 0,0 0,0 0,0 -0.40261,0.321035 -0.85549,0.587296 -1.35538,0.786142 -2.71591,1.080327 -5.94587,-0.157535 -7.28462,-2.970389 -1.33918,-2.813752 -0.014,-6.266418 3.07618,-7.516161 0.56916,-0.230181 1.15273,-0.367331 1.73046,-0.417633 0,0 0,0 0,0 2.63512,-0.234242 4.94107,1.304199 5.7093,3.744057 z"
           id="path1123" />
        <path
           style="fill:#3f5ac0;fill-opacity:1;stroke:none;stroke-width:0.0797291px;stroke-miterlimit:4;stroke-dasharray:none;stroke-opacity:1"
           d="m 238.15821,87.630478 c -0.069,3.531686 -2.8458,6.365113 -5.84365,6.650282 -3e-4,2.8e-5 -5.9e-4,5.6e-5 -8.9e-4,8.4e-5 -3.16413,0.30104 -6.28694,-1.979797 -6.98446,-5.471936 l -2e-4,-9.78e-4 c -0.69373,-3.478254 1.70453,-6.971135 5.79116,-7.345515 3.93095,-0.360119 7.10742,2.615786 7.03804,6.168063 z"
           id="path1125" />
        <path
           style="fill:#573db9;fill-opacity:1;stroke:none;stroke-width:0.0898433px;stroke-miterlimit:4;stroke-dasharray:none;stroke-opacity:1"
           d="m 258.44844,91.694434 c -1.37962,3.770993 -5.28836,5.748497 -8.75353,4.845368 -3.26606,-0.851236 -5.84555,-4.481567 -5.31061,-8.427276 l 1.3e-4,-9.87e-4 c 0.53822,-3.969936 4.62872,-6.711786 8.9341,-5.609003 3.6e-4,9.2e-5 7.2e-4,1.83e-4 10e-4,2.75e-4 4.45701,1.142753 6.50255,5.436809 5.12884,9.191623 z"
           id="path1127" />
        <path
           style="fill:#6f1eb1;fill-opacity:1;stroke:none;stroke-width:0.100216px;stroke-miterlimit:4;stroke-dasharray:none;stroke-opacity:1"
           d="m 277.63097,101.03389 c -2.25709,3.86062 -7.08538,5.19993 -10.84028,3.25183 -2.8e-4,-1.4e-4 -5.6e-4,-2.9e-4 -8.4e-4,-4.3e-4 -0.44321,-0.23007 -0.85405,-0.49696 -1.23186,-0.79558 0,0 0,0 0,0 -2.73094,-2.14538 -3.91869,-6.293114 -2.36034,-9.897427 l 4e-4,-9.17e-4 c 1.57368,-3.639773 5.57945,-5.503366 9.55026,-4.293854 0,0 0,0 0,0 0.51679,0.154567 1.02711,0.360679 1.52318,0.619766 4.27167,2.230982 5.61123,7.265114 3.35948,11.116612 z"
           id="path1129" />
      </g>
      <g
         id="g1147"
         transform="matrix(-0.34336723,0.19824316,-0.19824316,-0.34336723,325.55799,93.125218)"
         inkscape:transform-center-x="-12.102444"
         inkscape:transform-center-y="-28.977359">
        <path
           id="path1133"
           style="fill:#00aad4;stroke:none;stroke-width:0.0525585;stroke-miterlimit:4;stroke-dasharray:none"
           d="m 187.03694,107.60235 c 1.40338,1.88695 1.0247,4.54266 -0.78159,5.94505 -1.8108,1.40588 -4.47929,1.1152 -5.95387,-0.70812 -1.47342,-1.82188 -1.18488,-4.52015 0.72424,-6.01002 1.91356,-1.49333 4.60673,-1.11533 6.01122,0.77309 z" />
        <path
           id="path1135"
           style="fill:#8800aa;stroke:none;stroke-width:0.1108;stroke-miterlimit:4;stroke-dasharray:none"
           d="m 296.01668,112.72128 c -2.73717,4.13093 -8.30385,5.23011 -12.38226,2.58389 -4.02349,-2.61059 -5.285,-8.09857 -2.72035,-12.31138 2.57596,-4.231398 8.16952,-5.519418 12.47405,-2.72948 4.25029,2.75478 5.35374,8.34415 2.62856,12.45697 z" />
        <path
           style="fill:#1292ce;fill-opacity:1;stroke:none;stroke-width:0.0606731px;stroke-miterlimit:4;stroke-dasharray:none;stroke-opacity:1"
           d="m 200.9779,98.388103 c 1.34036,2.344867 0.56266,5.317747 -1.60679,6.684187 -2.2098,1.39186 -5.20262,0.78201 -6.72768,-1.46278 -1.52505,-2.24478 -0.88136,-5.35364 1.51069,-6.849882 2.39257,-1.495397 5.48096,-0.720684 6.82378,1.628475 z"
           id="path1137" />
        <path
           style="fill:#2877c7;fill-opacity:1;stroke:none;stroke-width:0.0699525px;stroke-miterlimit:4;stroke-dasharray:none;stroke-opacity:1"
           d="m 218.35243,90.603348 c 0.76182,2.419462 -0.15575,4.989213 -1.87594,6.373984 0,0 0,0 0,0 -0.40261,0.321035 -0.85549,0.587296 -1.35538,0.786142 -2.71591,1.080327 -5.94587,-0.157535 -7.28462,-2.970389 -1.33918,-2.813752 -0.014,-6.266418 3.07618,-7.516161 0.56916,-0.230181 1.15273,-0.367331 1.73046,-0.417633 0,0 0,0 0,0 2.63512,-0.234242 4.94107,1.304199 5.7093,3.744057 z"
           id="path1139" />
        <path
           style="fill:#3f5ac0;fill-opacity:1;stroke:none;stroke-width:0.0797291px;stroke-miterlimit:4;stroke-dasharray:none;stroke-opacity:1"
           d="m 238.15821,87.630478 c -0.069,3.531686 -2.8458,6.365113 -5.84365,6.650282 -3e-4,2.8e-5 -5.9e-4,5.6e-5 -8.9e-4,8.4e-5 -3.16413,0.30104 -6.28694,-1.979797 -6.98446,-5.471936 l -2e-4,-9.78e-4 c -0.69373,-3.478254 1.70453,-6.971135 5.79116,-7.345515 3.93095,-0.360119 7.10742,2.615786 7.03804,6.168063 z"
           id="path1141" />
        <path
           style="fill:#573db9;fill-opacity:1;stroke:none;stroke-width:0.0898433px;stroke-miterlimit:4;stroke-dasharray:none;stroke-opacity:1"
           d="m 258.44844,91.694434 c -1.37962,3.770993 -5.28836,5.748497 -8.75353,4.845368 -3.26606,-0.851236 -5.84555,-4.481567 -5.31061,-8.427276 l 1.3e-4,-9.87e-4 c 0.53822,-3.969936 4.62872,-6.711786 8.9341,-5.609003 3.6e-4,9.2e-5 7.2e-4,1.83e-4 10e-4,2.75e-4 4.45701,1.142753 6.50255,5.436809 5.12884,9.191623 z"
           id="path1143" />
        <path
           style="fill:#6f1eb1;fill-opacity:1;stroke:none;stroke-width:0.100216px;stroke-miterlimit:4;stroke-dasharray:none;stroke-opacity:1"
           d="m 277.63097,101.03389 c -2.25709,3.86062 -7.08538,5.19993 -10.84028,3.25183 -2.8e-4,-1.4e-4 -5.6e-4,-2.9e-4 -8.4e-4,-4.3e-4 -0.44321,-0.23007 -0.85405,-0.49696 -1.23186,-0.79558 0,0 0,0 0,0 -2.73094,-2.14538 -3.91869,-6.293114 -2.36034,-9.897427 l 4e-4,-9.17e-4 c 1.57368,-3.639773 5.57945,-5.503366 9.55026,-4.293854 0,0 0,0 0,0 0.51679,0.154567 1.02711,0.360679 1.52318,0.619766 4.27167,2.230982 5.61123,7.265114 3.35948,11.116612 z"
           id="path1145" />
      </g>
      <g
         id="g1163"
         transform="matrix(-0.39648633,0,0,-0.39648633,316.41121,161.76688)"
         inkscape:transform-center-x="-12.102444"
         inkscape:transform-center-y="-28.977359">
        <path
           id="path1149"
           style="fill:#00aad4;stroke:none;stroke-width:0.0525585;stroke-miterlimit:4;stroke-dasharray:none"
           d="m 187.03694,107.60235 c 1.40338,1.88695 1.0247,4.54266 -0.78159,5.94505 -1.8108,1.40588 -4.47929,1.1152 -5.95387,-0.70812 -1.47342,-1.82188 -1.18488,-4.52015 0.72424,-6.01002 1.91356,-1.49333 4.60673,-1.11533 6.01122,0.77309 z" />
        <path
           id="path1151"
           style="fill:#8800aa;stroke:none;stroke-width:0.1108;stroke-miterlimit:4;stroke-dasharray:none"
           d="m 296.01668,112.72128 c -2.73717,4.13093 -8.30385,5.23011 -12.38226,2.58389 -4.02349,-2.61059 -5.285,-8.09857 -2.72035,-12.31138 2.57596,-4.231398 8.16952,-5.519418 12.47405,-2.72948 4.25029,2.75478 5.35374,8.34415 2.62856,12.45697 z" />
        <path
           style="fill:#1292ce;fill-opacity:1;stroke:none;stroke-width:0.0606731px;stroke-miterlimit:4;stroke-dasharray:none;stroke-opacity:1"
           d="m 200.9779,98.388103 c 1.34036,2.344867 0.56266,5.317747 -1.60679,6.684187 -2.2098,1.39186 -5.20262,0.78201 -6.72768,-1.46278 -1.52505,-2.24478 -0.88136,-5.35364 1.51069,-6.849882 2.39257,-1.495397 5.48096,-0.720684 6.82378,1.628475 z"
           id="path1153" />
        <path
           style="fill:#2877c7;fill-opacity:1;stroke:none;stroke-width:0.0699525px;stroke-miterlimit:4;stroke-dasharray:none;stroke-opacity:1"
           d="m 218.35243,90.603348 c 0.76182,2.419462 -0.15575,4.989213 -1.87594,6.373984 0,0 0,0 0,0 -0.40261,0.321035 -0.85549,0.587296 -1.35538,0.786142 -2.71591,1.080327 -5.94587,-0.157535 -7.28462,-2.970389 -1.33918,-2.813752 -0.014,-6.266418 3.07618,-7.516161 0.56916,-0.230181 1.15273,-0.367331 1.73046,-0.417633 0,0 0,0 0,0 2.63512,-0.234242 4.94107,1.304199 5.7093,3.744057 z"
           id="path1155" />
        <path
           style="fill:#3f5ac0;fill-opacity:1;stroke:none;stroke-width:0.0797291px;stroke-miterlimit:4;stroke-dasharray:none;stroke-opacity:1"
           d="m 238.15821,87.630478 c -0.069,3.531686 -2.8458,6.365113 -5.84365,6.650282 -3e-4,2.8e-5 -5.9e-4,5.6e-5 -8.9e-4,8.4e-5 -3.16413,0.30104 -6.28694,-1.979797 -6.98446,-5.471936 l -2e-4,-9.78e-4 c -0.69373,-3.478254 1.70453,-6.971135 5.79116,-7.345515 3.93095,-0.360119 7.10742,2.615786 7.03804,6.168063 z"
           id="path1157" />
        <path
           style="fill:#573db9;fill-opacity:1;stroke:none;stroke-width:0.0898433px;stroke-miterlimit:4;stroke-dasharray:none;stroke-opacity:1"
           d="m 258.44844,91.694434 c -1.37962,3.770993 -5.28836,5.748497 -8.75353,4.845368 -3.26606,-0.851236 -5.84555,-4.481567 -5.31061,-8.427276 l 1.3e-4,-9.87e-4 c 0.53822,-3.969936 4.62872,-6.711786 8.9341,-5.609003 3.6e-4,9.2e-5 7.2e-4,1.83e-4 10e-4,2.75e-4 4.45701,1.142753 6.50255,5.436809 5.12884,9.191623 z"
           id="path1159" />
        <path
           style="fill:#6f1eb1;fill-opacity:1;stroke:none;stroke-width:0.100216px;stroke-miterlimit:4;stroke-dasharray:none;stroke-opacity:1"
           d="m 277.63097,101.03389 c -2.25709,3.86062 -7.08538,5.19993 -10.84028,3.25183 -2.8e-4,-1.4e-4 -5.6e-4,-2.9e-4 -8.4e-4,-4.3e-4 -0.44321,-0.23007 -0.85405,-0.49696 -1.23186,-0.79558 0,0 0,0 0,0 -2.73094,-2.14538 -3.91869,-6.293114 -2.36034,-9.897427 l 4e-4,-9.17e-4 c 1.57368,-3.639773 5.57945,-5.503366 9.55026,-4.293854 0,0 0,0 0,0 0.51679,0.154567 1.02711,0.360679 1.52318,0.619766 4.27167,2.230982 5.61123,7.265114 3.35948,11.116612 z"
           id="path1161" />
      </g>
      <g
         id="g1179"
         transform="matrix(-0.34336723,-0.19824316,0.19824316,-0.34336723,274.16904,216.63891)"
         inkscape:transform-center-x="-12.102444"
         inkscape:transform-center-y="-28.977359">
        <path
           id="path1165"
           style="fill:#00aad4;stroke:none;stroke-width:0.0525585;stroke-miterlimit:4;stroke-dasharray:none"
           d="m 187.03694,107.60235 c 1.40338,1.88695 1.0247,4.54266 -0.78159,5.94505 -1.8108,1.40588 -4.47929,1.1152 -5.95387,-0.70812 -1.47342,-1.82188 -1.18488,-4.52015 0.72424,-6.01002 1.91356,-1.49333 4.60673,-1.11533 6.01122,0.77309 z" />
        <path
           id="path1167"
           style="fill:#8800aa;stroke:none;stroke-width:0.1108;stroke-miterlimit:4;stroke-dasharray:none"
           d="m 296.01668,112.72128 c -2.73717,4.13093 -8.30385,5.23011 -12.38226,2.58389 -4.02349,-2.61059 -5.285,-8.09857 -2.72035,-12.31138 2.57596,-4.231398 8.16952,-5.519418 12.47405,-2.72948 4.25029,2.75478 5.35374,8.34415 2.62856,12.45697 z" />
        <path
           style="fill:#1292ce;fill-opacity:1;stroke:none;stroke-width:0.0606731px;stroke-miterlimit:4;stroke-dasharray:none;stroke-opacity:1"
           d="m 200.9779,98.388103 c 1.34036,2.344867 0.56266,5.317747 -1.60679,6.684187 -2.2098,1.39186 -5.20262,0.78201 -6.72768,-1.46278 -1.52505,-2.24478 -0.88136,-5.35364 1.51069,-6.849882 2.39257,-1.495397 5.48096,-0.720684 6.82378,1.628475 z"
           id="path1169" />
        <path
           style="fill:#2877c7;fill-opacity:1;stroke:none;stroke-width:0.0699525px;stroke-miterlimit:4;stroke-dasharray:none;stroke-opacity:1"
           d="m 218.35243,90.603348 c 0.76182,2.419462 -0.15575,4.989213 -1.87594,6.373984 0,0 0,0 0,0 -0.40261,0.321035 -0.85549,0.587296 -1.35538,0.786142 -2.71591,1.080327 -5.94587,-0.157535 -7.28462,-2.970389 -1.33918,-2.813752 -0.014,-6.266418 3.07618,-7.516161 0.56916,-0.230181 1.15273,-0.367331 1.73046,-0.417633 0,0 0,0 0,0 2.63512,-0.234242 4.94107,1.304199 5.7093,3.744057 z"
           id="path1171" />
        <path
           style="fill:#3f5ac0;fill-opacity:1;stroke:none;stroke-width:0.0797291px;stroke-miterlimit:4;stroke-dasharray:none;stroke-opacity:1"
           d="m 238.15821,87.630478 c -0.069,3.531686 -2.8458,6.365113 -5.84365,6.650282 -3e-4,2.8e-5 -5.9e-4,5.6e-5 -8.9e-4,8.4e-5 -3.16413,0.30104 -6.28694,-1.979797 -6.98446,-5.471936 l -2e-4,-9.78e-4 c -0.69373,-3.478254 1.70453,-6.971135 5.79116,-7.345515 3.93095,-0.360119 7.10742,2.615786 7.03804,6.168063 z"
           id="path1173" />
        <path
           style="fill:#573db9;fill-opacity:1;stroke:none;stroke-width:0.0898433px;stroke-miterlimit:4;stroke-dasharray:none;stroke-opacity:1"
           d="m 258.44844,91.694434 c -1.37962,3.770993 -5.28836,5.748497 -8.75353,4.845368 -3.26606,-0.851236 -5.84555,-4.481567 -5.31061,-8.427276 l 1.3e-4,-9.87e-4 c 0.53822,-3.969936 4.62872,-6.711786 8.9341,-5.609003 3.6e-4,9.2e-5 7.2e-4,1.83e-4 10e-4,2.75e-4 4.45701,1.142753 6.50255,5.436809 5.12884,9.191623 z"
           id="path1175" />
        <path
           style="fill:#6f1eb1;fill-opacity:1;stroke:none;stroke-width:0.100216px;stroke-miterlimit:4;stroke-dasharray:none;stroke-opacity:1"
           d="m 277.63097,101.03389 c -2.25709,3.86062 -7.08538,5.19993 -10.84028,3.25183 -2.8e-4,-1.4e-4 -5.6e-4,-2.9e-4 -8.4e-4,-4.3e-4 -0.44321,-0.23007 -0.85405,-0.49696 -1.23186,-0.79558 0,0 0,0 0,0 -2.73094,-2.14538 -3.91869,-6.293114 -2.36034,-9.897427 l 4e-4,-9.17e-4 c 1.57368,-3.639773 5.57945,-5.503366 9.55026,-4.293854 0,0 0,0 0,0 0.51679,0.154567 1.02711,0.360679 1.52318,0.619766 4.27167,2.230982 5.61123,7.265114 3.35948,11.116612 z"
           id="path1177" />
      </g>
      <g
         id="g1195"
         transform="matrix(-0.19824317,-0.34336723,0.34336723,-0.19824317,210.15022,243.03839)"
         inkscape:transform-center-x="-12.102444"
         inkscape:transform-center-y="-28.977359">
        <path
           id="path1181"
           style="fill:#00aad4;stroke:none;stroke-width:0.0525585;stroke-miterlimit:4;stroke-dasharray:none"
           d="m 187.03694,107.60235 c 1.40338,1.88695 1.0247,4.54266 -0.78159,5.94505 -1.8108,1.40588 -4.47929,1.1152 -5.95387,-0.70812 -1.47342,-1.82188 -1.18488,-4.52015 0.72424,-6.01002 1.91356,-1.49333 4.60673,-1.11533 6.01122,0.77309 z" />
        <path
           id="path1183"
           style="fill:#8800aa;stroke:none;stroke-width:0.1108;stroke-miterlimit:4;stroke-dasharray:none"
           d="m 296.01668,112.72128 c -2.73717,4.13093 -8.30385,5.23011 -12.38226,2.58389 -4.02349,-2.61059 -5.285,-8.09857 -2.72035,-12.31138 2.57596,-4.231398 8.16952,-5.519418 12.47405,-2.72948 4.25029,2.75478 5.35374,8.34415 2.62856,12.45697 z" />
        <path
           style="fill:#1292ce;fill-opacity:1;stroke:none;stroke-width:0.0606731px;stroke-miterlimit:4;stroke-dasharray:none;stroke-opacity:1"
           d="m 200.9779,98.388103 c 1.34036,2.344867 0.56266,5.317747 -1.60679,6.684187 -2.2098,1.39186 -5.20262,0.78201 -6.72768,-1.46278 -1.52505,-2.24478 -0.88136,-5.35364 1.51069,-6.849882 2.39257,-1.495397 5.48096,-0.720684 6.82378,1.628475 z"
           id="path1185" />
        <path
           style="fill:#2877c7;fill-opacity:1;stroke:none;stroke-width:0.0699525px;stroke-miterlimit:4;stroke-dasharray:none;stroke-opacity:1"
           d="m 218.35243,90.603348 c 0.76182,2.419462 -0.15575,4.989213 -1.87594,6.373984 0,0 0,0 0,0 -0.40261,0.321035 -0.85549,0.587296 -1.35538,0.786142 -2.71591,1.080327 -5.94587,-0.157535 -7.28462,-2.970389 -1.33918,-2.813752 -0.014,-6.266418 3.07618,-7.516161 0.56916,-0.230181 1.15273,-0.367331 1.73046,-0.417633 0,0 0,0 0,0 2.63512,-0.234242 4.94107,1.304199 5.7093,3.744057 z"
           id="path1187" />
        <path
           style="fill:#3f5ac0;fill-opacity:1;stroke:none;stroke-width:0.0797291px;stroke-miterlimit:4;stroke-dasharray:none;stroke-opacity:1"
           d="m 238.15821,87.630478 c -0.069,3.531686 -2.8458,6.365113 -5.84365,6.650282 -3e-4,2.8e-5 -5.9e-4,5.6e-5 -8.9e-4,8.4e-5 -3.16413,0.30104 -6.28694,-1.979797 -6.98446,-5.471936 l -2e-4,-9.78e-4 c -0.69373,-3.478254 1.70453,-6.971135 5.79116,-7.345515 3.93095,-0.360119 7.10742,2.615786 7.03804,6.168063 z"
           id="path1189" />
        <path
           style="fill:#573db9;fill-opacity:1;stroke:none;stroke-width:0.0898433px;stroke-miterlimit:4;stroke-dasharray:none;stroke-opacity:1"
           d="m 258.44844,91.694434 c -1.37962,3.770993 -5.28836,5.748497 -8.75353,4.845368 -3.26606,-0.851236 -5.84555,-4.481567 -5.31061,-8.427276 l 1.3e-4,-9.87e-4 c 0.53822,-3.969936 4.62872,-6.711786 8.9341,-5.609003 3.6e-4,9.2e-5 7.2e-4,1.83e-4 10e-4,2.75e-4 4.45701,1.142753 6.50255,5.436809 5.12884,9.191623 z"
           id="path1191" />
        <path
           style="fill:#6f1eb1;fill-opacity:1;stroke:none;stroke-width:0.100216px;stroke-miterlimit:4;stroke-dasharray:none;stroke-opacity:1"
           d="m 277.63097,101.03389 c -2.25709,3.86062 -7.08538,5.19993 -10.84028,3.25183 -2.8e-4,-1.4e-4 -5.6e-4,-2.9e-4 -8.4e-4,-4.3e-4 -0.44321,-0.23007 -0.85405,-0.49696 -1.23186,-0.79558 0,0 0,0 0,0 -2.73094,-2.14538 -3.91869,-6.293114 -2.36034,-9.897427 l 4e-4,-9.17e-4 c 1.57368,-3.639773 5.57945,-5.503366 9.55026,-4.293854 0,0 0,0 0,0 0.51679,0.154567 1.02711,0.360679 1.52318,0.619766 4.27167,2.230982 5.61123,7.265114 3.35948,11.116612 z"
           id="path1193" />
      </g>
      <g
         id="g1211"
         transform="matrix(0,-0.39648633,0.39648633,0,141.50856,233.89161)"
         inkscape:transform-center-x="-12.102444"
         inkscape:transform-center-y="-28.977359">
        <path
           id="path1197"
           style="fill:#00aad4;stroke:none;stroke-width:0.0525585;stroke-miterlimit:4;stroke-dasharray:none"
           d="m 187.03694,107.60235 c 1.40338,1.88695 1.0247,4.54266 -0.78159,5.94505 -1.8108,1.40588 -4.47929,1.1152 -5.95387,-0.70812 -1.47342,-1.82188 -1.18488,-4.52015 0.72424,-6.01002 1.91356,-1.49333 4.60673,-1.11533 6.01122,0.77309 z" />
        <path
           id="path1199"
           style="fill:#8800aa;stroke:none;stroke-width:0.1108;stroke-miterlimit:4;stroke-dasharray:none"
           d="m 296.01668,112.72128 c -2.73717,4.13093 -8.30385,5.23011 -12.38226,2.58389 -4.02349,-2.61059 -5.285,-8.09857 -2.72035,-12.31138 2.57596,-4.231398 8.16952,-5.519418 12.47405,-2.72948 4.25029,2.75478 5.35374,8.34415 2.62856,12.45697 z" />
        <path
           style="fill:#1292ce;fill-opacity:1;stroke:none;stroke-width:0.0606731px;stroke-miterlimit:4;stroke-dasharray:none;stroke-opacity:1"
           d="m 200.9779,98.388103 c 1.34036,2.344867 0.56266,5.317747 -1.60679,6.684187 -2.2098,1.39186 -5.20262,0.78201 -6.72768,-1.46278 -1.52505,-2.24478 -0.88136,-5.35364 1.51069,-6.849882 2.39257,-1.495397 5.48096,-0.720684 6.82378,1.628475 z"
           id="path1201" />
        <path
           style="fill:#2877c7;fill-opacity:1;stroke:none;stroke-width:0.0699525px;stroke-miterlimit:4;stroke-dasharray:none;stroke-opacity:1"
           d="m 218.35243,90.603348 c 0.76182,2.419462 -0.15575,4.989213 -1.87594,6.373984 0,0 0,0 0,0 -0.40261,0.321035 -0.85549,0.587296 -1.35538,0.786142 -2.71591,1.080327 -5.94587,-0.157535 -7.28462,-2.970389 -1.33918,-2.813752 -0.014,-6.266418 3.07618,-7.516161 0.56916,-0.230181 1.15273,-0.367331 1.73046,-0.417633 0,0 0,0 0,0 2.63512,-0.234242 4.94107,1.304199 5.7093,3.744057 z"
           id="path1203" />
        <path
           style="fill:#3f5ac0;fill-opacity:1;stroke:none;stroke-width:0.0797291px;stroke-miterlimit:4;stroke-dasharray:none;stroke-opacity:1"
           d="m 238.15821,87.630478 c -0.069,3.531686 -2.8458,6.365113 -5.84365,6.650282 -3e-4,2.8e-5 -5.9e-4,5.6e-5 -8.9e-4,8.4e-5 -3.16413,0.30104 -6.28694,-1.979797 -6.98446,-5.471936 l -2e-4,-9.78e-4 c -0.69373,-3.478254 1.70453,-6.971135 5.79116,-7.345515 3.93095,-0.360119 7.10742,2.615786 7.03804,6.168063 z"
           id="path1205" />
        <path
           style="fill:#573db9;fill-opacity:1;stroke:none;stroke-width:0.0898433px;stroke-miterlimit:4;stroke-dasharray:none;stroke-opacity:1"
           d="m 258.44844,91.694434 c -1.37962,3.770993 -5.28836,5.748497 -8.75353,4.845368 -3.26606,-0.851236 -5.84555,-4.481567 -5.31061,-8.427276 l 1.3e-4,-9.87e-4 c 0.53822,-3.969936 4.62872,-6.711786 8.9341,-5.609003 3.6e-4,9.2e-5 7.2e-4,1.83e-4 10e-4,2.75e-4 4.45701,1.142753 6.50255,5.436809 5.12884,9.191623 z"
           id="path1207" />
        <path
           style="fill:#6f1eb1;fill-opacity:1;stroke:none;stroke-width:0.100216px;stroke-miterlimit:4;stroke-dasharray:none;stroke-opacity:1"
           d="m 277.63097,101.03389 c -2.25709,3.86062 -7.08538,5.19993 -10.84028,3.25183 -2.8e-4,-1.4e-4 -5.6e-4,-2.9e-4 -8.4e-4,-4.3e-4 -0.44321,-0.23007 -0.85405,-0.49696 -1.23186,-0.79558 0,0 0,0 0,0 -2.73094,-2.14538 -3.91869,-6.293114 -2.36034,-9.897427 l 4e-4,-9.17e-4 c 1.57368,-3.639773 5.57945,-5.503366 9.55026,-4.293854 0,0 0,0 0,0 0.51679,0.154567 1.02711,0.360679 1.52318,0.619766 4.27167,2.230982 5.61123,7.265114 3.35948,11.116612 z"
           id="path1209" />
      </g>
      <g
         id="g1227"
         transform="matrix(0.19824317,-0.34336723,0.34336723,0.19824317,86.636534,191.64943)"
         inkscape:transform-center-x="-12.102444"
         inkscape:transform-center-y="-28.977359">
        <path
           id="path1213"
           style="fill:#00aad4;stroke:none;stroke-width:0.0525585;stroke-miterlimit:4;stroke-dasharray:none"
           d="m 187.03694,107.60235 c 1.40338,1.88695 1.0247,4.54266 -0.78159,5.94505 -1.8108,1.40588 -4.47929,1.1152 -5.95387,-0.70812 -1.47342,-1.82188 -1.18488,-4.52015 0.72424,-6.01002 1.91356,-1.49333 4.60673,-1.11533 6.01122,0.77309 z" />
        <path
           id="path1215"
           style="fill:#8800aa;stroke:none;stroke-width:0.1108;stroke-miterlimit:4;stroke-dasharray:none"
           d="m 296.01668,112.72128 c -2.73717,4.13093 -8.30385,5.23011 -12.38226,2.58389 -4.02349,-2.61059 -5.285,-8.09857 -2.72035,-12.31138 2.57596,-4.231398 8.16952,-5.519418 12.47405,-2.72948 4.25029,2.75478 5.35374,8.34415 2.62856,12.45697 z" />
        <path
           style="fill:#1292ce;fill-opacity:1;stroke:none;stroke-width:0.0606731px;stroke-miterlimit:4;stroke-dasharray:none;stroke-opacity:1"
           d="m 200.9779,98.388103 c 1.34036,2.344867 0.56266,5.317747 -1.60679,6.684187 -2.2098,1.39186 -5.20262,0.78201 -6.72768,-1.46278 -1.52505,-2.24478 -0.88136,-5.35364 1.51069,-6.849882 2.39257,-1.495397 5.48096,-0.720684 6.82378,1.628475 z"
           id="path1217" />
        <path
           style="fill:#2877c7;fill-opacity:1;stroke:none;stroke-width:0.0699525px;stroke-miterlimit:4;stroke-dasharray:none;stroke-opacity:1"
           d="m 218.35243,90.603348 c 0.76182,2.419462 -0.15575,4.989213 -1.87594,6.373984 0,0 0,0 0,0 -0.40261,0.321035 -0.85549,0.587296 -1.35538,0.786142 -2.71591,1.080327 -5.94587,-0.157535 -7.28462,-2.970389 -1.33918,-2.813752 -0.014,-6.266418 3.07618,-7.516161 0.56916,-0.230181 1.15273,-0.367331 1.73046,-0.417633 0,0 0,0 0,0 2.63512,-0.234242 4.94107,1.304199 5.7093,3.744057 z"
           id="path1219" />
        <path
           style="fill:#3f5ac0;fill-opacity:1;stroke:none;stroke-width:0.0797291px;stroke-miterlimit:4;stroke-dasharray:none;stroke-opacity:1"
           d="m 238.15821,87.630478 c -0.069,3.531686 -2.8458,6.365113 -5.84365,6.650282 -3e-4,2.8e-5 -5.9e-4,5.6e-5 -8.9e-4,8.4e-5 -3.16413,0.30104 -6.28694,-1.979797 -6.98446,-5.471936 l -2e-4,-9.78e-4 c -0.69373,-3.478254 1.70453,-6.971135 5.79116,-7.345515 3.93095,-0.360119 7.10742,2.615786 7.03804,6.168063 z"
           id="path1221" />
        <path
           style="fill:#573db9;fill-opacity:1;stroke:none;stroke-width:0.0898433px;stroke-miterlimit:4;stroke-dasharray:none;stroke-opacity:1"
           d="m 258.44844,91.694434 c -1.37962,3.770993 -5.28836,5.748497 -8.75353,4.845368 -3.26606,-0.851236 -5.84555,-4.481567 -5.31061,-8.427276 l 1.3e-4,-9.87e-4 c 0.53822,-3.969936 4.62872,-6.711786 8.9341,-5.609003 3.6e-4,9.2e-5 7.2e-4,1.83e-4 10e-4,2.75e-4 4.45701,1.142753 6.50255,5.436809 5.12884,9.191623 z"
           id="path1223" />
        <path
           style="fill:#6f1eb1;fill-opacity:1;stroke:none;stroke-width:0.100216px;stroke-miterlimit:4;stroke-dasharray:none;stroke-opacity:1"
           d="m 277.63097,101.03389 c -2.25709,3.86062 -7.08538,5.19993 -10.84028,3.25183 -2.8e-4,-1.4e-4 -5.6e-4,-2.9e-4 -8.4e-4,-4.3e-4 -0.44321,-0.23007 -0.85405,-0.49696 -1.23186,-0.79558 0,0 0,0 0,0 -2.73094,-2.14538 -3.91869,-6.293114 -2.36034,-9.897427 l 4e-4,-9.17e-4 c 1.57368,-3.639773 5.57945,-5.503366 9.55026,-4.293854 0,0 0,0 0,0 0.51679,0.154567 1.02711,0.360679 1.52318,0.619766 4.27167,2.230982 5.61123,7.265114 3.35948,11.116612 z"
           id="path1225" />
      </g>
      <g
         id="g1243"
         transform="matrix(0.34336723,-0.19824316,0.19824316,0.34336723,60.23705,127.63062)"
         inkscape:transform-center-x="-12.102444"
         inkscape:transform-center-y="-28.977359">
        <path
           id="path1229"
           style="fill:#00aad4;stroke:none;stroke-width:0.0525585;stroke-miterlimit:4;stroke-dasharray:none"
           d="m 187.03694,107.60235 c 1.40338,1.88695 1.0247,4.54266 -0.78159,5.94505 -1.8108,1.40588 -4.47929,1.1152 -5.95387,-0.70812 -1.47342,-1.82188 -1.18488,-4.52015 0.72424,-6.01002 1.91356,-1.49333 4.60673,-1.11533 6.01122,0.77309 z" />
        <path
           id="path1231"
           style="fill:#8800aa;stroke:none;stroke-width:0.1108;stroke-miterlimit:4;stroke-dasharray:none"
           d="m 296.01668,112.72128 c -2.73717,4.13093 -8.30385,5.23011 -12.38226,2.58389 -4.02349,-2.61059 -5.285,-8.09857 -2.72035,-12.31138 2.57596,-4.231398 8.16952,-5.519418 12.47405,-2.72948 4.25029,2.75478 5.35374,8.34415 2.62856,12.45697 z" />
        <path
           style="fill:#1292ce;fill-opacity:1;stroke:none;stroke-width:0.0606731px;stroke-miterlimit:4;stroke-dasharray:none;stroke-opacity:1"
           d="m 200.9779,98.388103 c 1.34036,2.344867 0.56266,5.317747 -1.60679,6.684187 -2.2098,1.39186 -5.20262,0.78201 -6.72768,-1.46278 -1.52505,-2.24478 -0.88136,-5.35364 1.51069,-6.849882 2.39257,-1.495397 5.48096,-0.720684 6.82378,1.628475 z"
           id="path1233" />
        <path
           style="fill:#2877c7;fill-opacity:1;stroke:none;stroke-width:0.0699525px;stroke-miterlimit:4;stroke-dasharray:none;stroke-opacity:1"
           d="m 218.35243,90.603348 c 0.76182,2.419462 -0.15575,4.989213 -1.87594,6.373984 0,0 0,0 0,0 -0.40261,0.321035 -0.85549,0.587296 -1.35538,0.786142 -2.71591,1.080327 -5.94587,-0.157535 -7.28462,-2.970389 -1.33918,-2.813752 -0.014,-6.266418 3.07618,-7.516161 0.56916,-0.230181 1.15273,-0.367331 1.73046,-0.417633 0,0 0,0 0,0 2.63512,-0.234242 4.94107,1.304199 5.7093,3.744057 z"
           id="path1235" />
        <path
           style="fill:#3f5ac0;fill-opacity:1;stroke:none;stroke-width:0.0797291px;stroke-miterlimit:4;stroke-dasharray:none;stroke-opacity:1"
           d="m 238.15821,87.630478 c -0.069,3.531686 -2.8458,6.365113 -5.84365,6.650282 -3e-4,2.8e-5 -5.9e-4,5.6e-5 -8.9e-4,8.4e-5 -3.16413,0.30104 -6.28694,-1.979797 -6.98446,-5.471936 l -2e-4,-9.78e-4 c -0.69373,-3.478254 1.70453,-6.971135 5.79116,-7.345515 3.93095,-0.360119 7.10742,2.615786 7.03804,6.168063 z"
           id="path1237" />
        <path
           style="fill:#573db9;fill-opacity:1;stroke:none;stroke-width:0.0898433px;stroke-miterlimit:4;stroke-dasharray:none;stroke-opacity:1"
           d="m 258.44844,91.694434 c -1.37962,3.770993 -5.28836,5.748497 -8.75353,4.845368 -3.26606,-0.851236 -5.84555,-4.481567 -5.31061,-8.427276 l 1.3e-4,-9.87e-4 c 0.53822,-3.969936 4.62872,-6.711786 8.9341,-5.609003 3.6e-4,9.2e-5 7.2e-4,1.83e-4 10e-4,2.75e-4 4.45701,1.142753 6.50255,5.436809 5.12884,9.191623 z"
           id="path1239" />
        <path
           style="fill:#6f1eb1;fill-opacity:1;stroke:none;stroke-width:0.100216px;stroke-miterlimit:4;stroke-dasharray:none;stroke-opacity:1"
           d="m 277.63097,101.03389 c -2.25709,3.86062 -7.08538,5.19993 -10.84028,3.25183 -2.8e-4,-1.4e-4 -5.6e-4,-2.9e-4 -8.4e-4,-4.3e-4 -0.44321,-0.23007 -0.85405,-0.49696 -1.23186,-0.79558 0,0 0,0 0,0 -2.73094,-2.14538 -3.91869,-6.293114 -2.36034,-9.897427 l 4e-4,-9.17e-4 c 1.57368,-3.639773 5.57945,-5.503366 9.55026,-4.293854 0,0 0,0 0,0 0.51679,0.154567 1.02711,0.360679 1.52318,0.619766 4.27167,2.230982 5.61123,7.265114 3.35948,11.116612 z"
           id="path1241" />
      </g>
      <g
         id="g1259"
         transform="matrix(0.39648633,0,0,0.39648633,69.383832,58.988962)"
         inkscape:transform-center-x="-12.102444"
         inkscape:transform-center-y="-28.977359">
        <path
           id="path1245"
           style="fill:#00aad4;stroke:none;stroke-width:0.0525585;stroke-miterlimit:4;stroke-dasharray:none"
           d="m 187.03694,107.60235 c 1.40338,1.88695 1.0247,4.54266 -0.78159,5.94505 -1.8108,1.40588 -4.47929,1.1152 -5.95387,-0.70812 -1.47342,-1.82188 -1.18488,-4.52015 0.72424,-6.01002 1.91356,-1.49333 4.60673,-1.11533 6.01122,0.77309 z" />
        <path
           id="path1247"
           style="fill:#8800aa;stroke:none;stroke-width:0.1108;stroke-miterlimit:4;stroke-dasharray:none"
           d="m 296.01668,112.72128 c -2.73717,4.13093 -8.30385,5.23011 -12.38226,2.58389 -4.02349,-2.61059 -5.285,-8.09857 -2.72035,-12.31138 2.57596,-4.231398 8.16952,-5.519418 12.47405,-2.72948 4.25029,2.75478 5.35374,8.34415 2.62856,12.45697 z" />
        <path
           style="fill:#1292ce;fill-opacity:1;stroke:none;stroke-width:0.0606731px;stroke-miterlimit:4;stroke-dasharray:none;stroke-opacity:1"
           d="m 200.9779,98.388103 c 1.34036,2.344867 0.56266,5.317747 -1.60679,6.684187 -2.2098,1.39186 -5.20262,0.78201 -6.72768,-1.46278 -1.52505,-2.24478 -0.88136,-5.35364 1.51069,-6.849882 2.39257,-1.495397 5.48096,-0.720684 6.82378,1.628475 z"
           id="path1249" />
        <path
           style="fill:#2877c7;fill-opacity:1;stroke:none;stroke-width:0.0699525px;stroke-miterlimit:4;stroke-dasharray:none;stroke-opacity:1"
           d="m 218.35243,90.603348 c 0.76182,2.419462 -0.15575,4.989213 -1.87594,6.373984 0,0 0,0 0,0 -0.40261,0.321035 -0.85549,0.587296 -1.35538,0.786142 -2.71591,1.080327 -5.94587,-0.157535 -7.28462,-2.970389 -1.33918,-2.813752 -0.014,-6.266418 3.07618,-7.516161 0.56916,-0.230181 1.15273,-0.367331 1.73046,-0.417633 0,0 0,0 0,0 2.63512,-0.234242 4.94107,1.304199 5.7093,3.744057 z"
           id="path1251" />
        <path
           style="fill:#3f5ac0;fill-opacity:1;stroke:none;stroke-width:0.0797291px;stroke-miterlimit:4;stroke-dasharray:none;stroke-opacity:1"
           d="m 238.15821,87.630478 c -0.069,3.531686 -2.8458,6.365113 -5.84365,6.650282 -3e-4,2.8e-5 -5.9e-4,5.6e-5 -8.9e-4,8.4e-5 -3.16413,0.30104 -6.28694,-1.979797 -6.98446,-5.471936 l -2e-4,-9.78e-4 c -0.69373,-3.478254 1.70453,-6.971135 5.79116,-7.345515 3.93095,-0.360119 7.10742,2.615786 7.03804,6.168063 z"
           id="path1253" />
        <path
           style="fill:#573db9;fill-opacity:1;stroke:none;stroke-width:0.0898433px;stroke-miterlimit:4;stroke-dasharray:none;stroke-opacity:1"
           d="m 258.44844,91.694434 c -1.37962,3.770993 -5.28836,5.748497 -8.75353,4.845368 -3.26606,-0.851236 -5.84555,-4.481567 -5.31061,-8.427276 l 1.3e-4,-9.87e-4 c 0.53822,-3.969936 4.62872,-6.711786 8.9341,-5.609003 3.6e-4,9.2e-5 7.2e-4,1.83e-4 10e-4,2.75e-4 4.45701,1.142753 6.50255,5.436809 5.12884,9.191623 z"
           id="path1255" />
        <path
           style="fill:#6f1eb1;fill-opacity:1;stroke:none;stroke-width:0.100216px;stroke-miterlimit:4;stroke-dasharray:none;stroke-opacity:1"
           d="m 277.63097,101.03389 c -2.25709,3.86062 -7.08538,5.19993 -10.84028,3.25183 -2.8e-4,-1.4e-4 -5.6e-4,-2.9e-4 -8.4e-4,-4.3e-4 -0.44321,-0.23007 -0.85405,-0.49696 -1.23186,-0.79558 0,0 0,0 0,0 -2.73094,-2.14538 -3.91869,-6.293114 -2.36034,-9.897427 l 4e-4,-9.17e-4 c 1.57368,-3.639773 5.57945,-5.503366 9.55026,-4.293854 0,0 0,0 0,0 0.51679,0.154567 1.02711,0.360679 1.52318,0.619766 4.27167,2.230982 5.61123,7.265114 3.35948,11.116612 z"
           id="path1257" />
      </g>
      <g
         id="g1275"
         transform="matrix(0.34336723,0.19824316,-0.19824316,0.34336723,111.62601,4.1169322)"
         inkscape:transform-center-x="-12.102444"
         inkscape:transform-center-y="-28.977359">
        <path
           id="path1261"
           style="fill:#00aad4;stroke:none;stroke-width:0.0525585;stroke-miterlimit:4;stroke-dasharray:none"
           d="m 187.03694,107.60235 c 1.40338,1.88695 1.0247,4.54266 -0.78159,5.94505 -1.8108,1.40588 -4.47929,1.1152 -5.95387,-0.70812 -1.47342,-1.82188 -1.18488,-4.52015 0.72424,-6.01002 1.91356,-1.49333 4.60673,-1.11533 6.01122,0.77309 z" />
        <path
           id="path1263"
           style="fill:#8800aa;stroke:none;stroke-width:0.1108;stroke-miterlimit:4;stroke-dasharray:none"
           d="m 296.01668,112.72128 c -2.73717,4.13093 -8.30385,5.23011 -12.38226,2.58389 -4.02349,-2.61059 -5.285,-8.09857 -2.72035,-12.31138 2.57596,-4.231398 8.16952,-5.519418 12.47405,-2.72948 4.25029,2.75478 5.35374,8.34415 2.62856,12.45697 z" />
        <path
           style="fill:#1292ce;fill-opacity:1;stroke:none;stroke-width:0.0606731px;stroke-miterlimit:4;stroke-dasharray:none;stroke-opacity:1"
           d="m 200.9779,98.388103 c 1.34036,2.344867 0.56266,5.317747 -1.60679,6.684187 -2.2098,1.39186 -5.20262,0.78201 -6.72768,-1.46278 -1.52505,-2.24478 -0.88136,-5.35364 1.51069,-6.849882 2.39257,-1.495397 5.48096,-0.720684 6.82378,1.628475 z"
           id="path1265" />
        <path
           style="fill:#2877c7;fill-opacity:1;stroke:none;stroke-width:0.0699525px;stroke-miterlimit:4;stroke-dasharray:none;stroke-opacity:1"
           d="m 218.35243,90.603348 c 0.76182,2.419462 -0.15575,4.989213 -1.87594,6.373984 0,0 0,0 0,0 -0.40261,0.321035 -0.85549,0.587296 -1.35538,0.786142 -2.71591,1.080327 -5.94587,-0.157535 -7.28462,-2.970389 -1.33918,-2.813752 -0.014,-6.266418 3.07618,-7.516161 0.56916,-0.230181 1.15273,-0.367331 1.73046,-0.417633 0,0 0,0 0,0 2.63512,-0.234242 4.94107,1.304199 5.7093,3.744057 z"
           id="path1267" />
        <path
           style="fill:#3f5ac0;fill-opacity:1;stroke:none;stroke-width:0.0797291px;stroke-miterlimit:4;stroke-dasharray:none;stroke-opacity:1"
           d="m 238.15821,87.630478 c -0.069,3.531686 -2.8458,6.365113 -5.84365,6.650282 -3e-4,2.8e-5 -5.9e-4,5.6e-5 -8.9e-4,8.4e-5 -3.16413,0.30104 -6.28694,-1.979797 -6.98446,-5.471936 l -2e-4,-9.78e-4 c -0.69373,-3.478254 1.70453,-6.971135 5.79116,-7.345515 3.93095,-0.360119 7.10742,2.615786 7.03804,6.168063 z"
           id="path1269" />
        <path
           style="fill:#573db9;fill-opacity:1;stroke:none;stroke-width:0.0898433px;stroke-miterlimit:4;stroke-dasharray:none;stroke-opacity:1"
           d="m 258.44844,91.694434 c -1.37962,3.770993 -5.28836,5.748497 -8.75353,4.845368 -3.26606,-0.851236 -5.84555,-4.481567 -5.31061,-8.427276 l 1.3e-4,-9.87e-4 c 0.53822,-3.969936 4.62872,-6.711786 8.9341,-5.609003 3.6e-4,9.2e-5 7.2e-4,1.83e-4 10e-4,2.75e-4 4.45701,1.142753 6.50255,5.436809 5.12884,9.191623 z"
           id="path1271" />
        <path
           style="fill:#6f1eb1;fill-opacity:1;stroke:none;stroke-width:0.100216px;stroke-miterlimit:4;stroke-dasharray:none;stroke-opacity:1"
           d="m 277.63097,101.03389 c -2.25709,3.86062 -7.08538,5.19993 -10.84028,3.25183 -2.8e-4,-1.4e-4 -5.6e-4,-2.9e-4 -8.4e-4,-4.3e-4 -0.44321,-0.23007 -0.85405,-0.49696 -1.23186,-0.79558 0,0 0,0 0,0 -2.73094,-2.14538 -3.91869,-6.293114 -2.36034,-9.897427 l 4e-4,-9.17e-4 c 1.57368,-3.639773 5.57945,-5.503366 9.55026,-4.293854 0,0 0,0 0,0 0.51679,0.154567 1.02711,0.360679 1.52318,0.619766 4.27167,2.230982 5.61123,7.265114 3.35948,11.116612 z"
           id="path1273" />
      </g>
      <g
         id="g1291"
         transform="matrix(0.19824316,0.34336723,-0.34336723,0.19824316,175.64482,-22.282552)"
         inkscape:transform-center-x="-12.102444"
         inkscape:transform-center-y="-28.977359">
        <path
           id="path1277"
           style="fill:#00aad4;stroke:none;stroke-width:0.0525585;stroke-miterlimit:4;stroke-dasharray:none"
           d="m 187.03694,107.60235 c 1.40338,1.88695 1.0247,4.54266 -0.78159,5.94505 -1.8108,1.40588 -4.47929,1.1152 -5.95387,-0.70812 -1.47342,-1.82188 -1.18488,-4.52015 0.72424,-6.01002 1.91356,-1.49333 4.60673,-1.11533 6.01122,0.77309 z" />
        <path
           id="path1279"
           style="fill:#8800aa;stroke:none;stroke-width:0.1108;stroke-miterlimit:4;stroke-dasharray:none"
           d="m 296.01668,112.72128 c -2.73717,4.13093 -8.30385,5.23011 -12.38226,2.58389 -4.02349,-2.61059 -5.285,-8.09857 -2.72035,-12.31138 2.57596,-4.231398 8.16952,-5.519418 12.47405,-2.72948 4.25029,2.75478 5.35374,8.34415 2.62856,12.45697 z" />
        <path
           style="fill:#1292ce;fill-opacity:1;stroke:none;stroke-width:0.0606731px;stroke-miterlimit:4;stroke-dasharray:none;stroke-opacity:1"
           d="m 200.9779,98.388103 c 1.34036,2.344867 0.56266,5.317747 -1.60679,6.684187 -2.2098,1.39186 -5.20262,0.78201 -6.72768,-1.46278 -1.52505,-2.24478 -0.88136,-5.35364 1.51069,-6.849882 2.39257,-1.495397 5.48096,-0.720684 6.82378,1.628475 z"
           id="path1281" />
        <path
           style="fill:#2877c7;fill-opacity:1;stroke:none;stroke-width:0.0699525px;stroke-miterlimit:4;stroke-dasharray:none;stroke-opacity:1"
           d="m 218.35243,90.603348 c 0.76182,2.419462 -0.15575,4.989213 -1.87594,6.373984 0,0 0,0 0,0 -0.40261,0.321035 -0.85549,0.587296 -1.35538,0.786142 -2.71591,1.080327 -5.94587,-0.157535 -7.28462,-2.970389 -1.33918,-2.813752 -0.014,-6.266418 3.07618,-7.516161 0.56916,-0.230181 1.15273,-0.367331 1.73046,-0.417633 0,0 0,0 0,0 2.63512,-0.234242 4.94107,1.304199 5.7093,3.744057 z"
           id="path1283" />
        <path
           style="fill:#3f5ac0;fill-opacity:1;stroke:none;stroke-width:0.0797291px;stroke-miterlimit:4;stroke-dasharray:none;stroke-opacity:1"
           d="m 238.15821,87.630478 c -0.069,3.531686 -2.8458,6.365113 -5.84365,6.650282 -3e-4,2.8e-5 -5.9e-4,5.6e-5 -8.9e-4,8.4e-5 -3.16413,0.30104 -6.28694,-1.979797 -6.98446,-5.471936 l -2e-4,-9.78e-4 c -0.69373,-3.478254 1.70453,-6.971135 5.79116,-7.345515 3.93095,-0.360119 7.10742,2.615786 7.03804,6.168063 z"
           id="path1285" />
        <path
           style="fill:#573db9;fill-opacity:1;stroke:none;stroke-width:0.0898433px;stroke-miterlimit:4;stroke-dasharray:none;stroke-opacity:1"
           d="m 258.44844,91.694434 c -1.37962,3.770993 -5.28836,5.748497 -8.75353,4.845368 -3.26606,-0.851236 -5.84555,-4.481567 -5.31061,-8.427276 l 1.3e-4,-9.87e-4 c 0.53822,-3.969936 4.62872,-6.711786 8.9341,-5.609003 3.6e-4,9.2e-5 7.2e-4,1.83e-4 10e-4,2.75e-4 4.45701,1.142753 6.50255,5.436809 5.12884,9.191623 z"
           id="path1287" />
        <path
           style="fill:#6f1eb1;fill-opacity:1;stroke:none;stroke-width:0.100216px;stroke-miterlimit:4;stroke-dasharray:none;stroke-opacity:1"
           d="m 277.63097,101.03389 c -2.25709,3.86062 -7.08538,5.19993 -10.84028,3.25183 -2.8e-4,-1.4e-4 -5.6e-4,-2.9e-4 -8.4e-4,-4.3e-4 -0.44321,-0.23007 -0.85405,-0.49696 -1.23186,-0.79558 0,0 0,0 0,0 -2.73094,-2.14538 -3.91869,-6.293114 -2.36034,-9.897427 l 4e-4,-9.17e-4 c 1.57368,-3.639773 5.57945,-5.503366 9.55026,-4.293854 0,0 0,0 0,0 0.51679,0.154567 1.02711,0.360679 1.52318,0.619766 4.27167,2.230982 5.61123,7.265114 3.35948,11.116612 z"
           id="path1289" />
      </g>
      <g
         id="g1097"
         transform="matrix(0.19824316,0.34336723,-0.34336723,0.19824316,175.64482,-22.282552)"
         inkscape:transform-center-x="6.94047"
         inkscape:transform-center-y="-29.057908">
        <path
           id="path909"
           style="fill:#00aad4;stroke:none;stroke-width:0.0525585;stroke-miterlimit:4;stroke-dasharray:none"
           d="m 187.03694,107.60235 c 1.40338,1.88695 1.0247,4.54266 -0.78159,5.94505 -1.8108,1.40588 -4.47929,1.1152 -5.95387,-0.70812 -1.47342,-1.82188 -1.18488,-4.52015 0.72424,-6.01002 1.91356,-1.49333 4.60673,-1.11533 6.01122,0.77309 z" />
        <path
           id="path912"
           style="fill:#8800aa;stroke:none;stroke-width:0.1108;stroke-miterlimit:4;stroke-dasharray:none"
           d="m 296.01668,112.72128 c -2.73717,4.13093 -8.30385,5.23011 -12.38226,2.58389 -4.02349,-2.61059 -5.285,-8.09857 -2.72035,-12.31138 2.57596,-4.231398 8.16952,-5.519418 12.47405,-2.72948 4.25029,2.75478 5.35374,8.34415 2.62856,12.45697 z" />
        <path
           style="fill:#1292ce;fill-opacity:1;stroke:none;stroke-width:0.0606731px;stroke-miterlimit:4;stroke-dasharray:none;stroke-opacity:1"
           d="m 200.9779,98.388103 c 1.34036,2.344867 0.56266,5.317747 -1.60679,6.684187 -2.2098,1.39186 -5.20262,0.78201 -6.72768,-1.46278 -1.52505,-2.24478 -0.88136,-5.35364 1.51069,-6.849882 2.39257,-1.495397 5.48096,-0.720684 6.82378,1.628475 z"
           id="path1032" />
        <path
           style="fill:#2877c7;fill-opacity:1;stroke:none;stroke-width:0.0699525px;stroke-miterlimit:4;stroke-dasharray:none;stroke-opacity:1"
           d="m 218.35243,90.603348 c 0.76182,2.419462 -0.15575,4.989213 -1.87594,6.373984 0,0 0,0 0,0 -0.40261,0.321035 -0.85549,0.587296 -1.35538,0.786142 -2.71591,1.080327 -5.94587,-0.157535 -7.28462,-2.970389 -1.33918,-2.813752 -0.014,-6.266418 3.07618,-7.516161 0.56916,-0.230181 1.15273,-0.367331 1.73046,-0.417633 0,0 0,0 0,0 2.63512,-0.234242 4.94107,1.304199 5.7093,3.744057 z"
           id="path1034" />
        <path
           style="fill:#3f5ac0;fill-opacity:1;stroke:none;stroke-width:0.0797291px;stroke-miterlimit:4;stroke-dasharray:none;stroke-opacity:1"
           d="m 238.15821,87.630478 c -0.069,3.531686 -2.8458,6.365113 -5.84365,6.650282 -3e-4,2.8e-5 -5.9e-4,5.6e-5 -8.9e-4,8.4e-5 -3.16413,0.30104 -6.28694,-1.979797 -6.98446,-5.471936 l -2e-4,-9.78e-4 c -0.69373,-3.478254 1.70453,-6.971135 5.79116,-7.345515 3.93095,-0.360119 7.10742,2.615786 7.03804,6.168063 z"
           id="path1036" />
        <path
           style="fill:#573db9;fill-opacity:1;stroke:none;stroke-width:0.0898433px;stroke-miterlimit:4;stroke-dasharray:none;stroke-opacity:1"
           d="m 258.44844,91.694434 c -1.37962,3.770993 -5.28836,5.748497 -8.75353,4.845368 -3.26606,-0.851236 -5.84555,-4.481567 -5.31061,-8.427276 l 1.3e-4,-9.87e-4 c 0.53822,-3.969936 4.62872,-6.711786 8.9341,-5.609003 3.6e-4,9.2e-5 7.2e-4,1.83e-4 10e-4,2.75e-4 4.45701,1.142753 6.50255,5.436809 5.12884,9.191623 z"
           id="path1038" />
        <path
           style="fill:#6f1eb1;fill-opacity:1;stroke:none;stroke-width:0.100216px;stroke-miterlimit:4;stroke-dasharray:none;stroke-opacity:1"
           d="m 277.63097,101.03389 c -2.25709,3.86062 -7.08538,5.19993 -10.84028,3.25183 -2.8e-4,-1.4e-4 -5.6e-4,-2.9e-4 -8.4e-4,-4.3e-4 -0.44321,-0.23007 -0.85405,-0.49696 -1.23186,-0.79558 0,0 0,0 0,0 -2.73094,-2.14538 -3.91869,-6.293114 -2.36034,-9.897427 l 4e-4,-9.17e-4 c 1.57368,-3.639773 5.57945,-5.503366 9.55026,-4.293854 0,0 0,0 0,0 0.51679,0.154567 1.02711,0.360679 1.52318,0.619766 4.27167,2.230982 5.61123,7.265114 3.35948,11.116612 z"
           id="path1040" />
      </g>
    </g>
    <g
       inkscape:label=""
       transform="matrix(3.2392554,0,0,3.2392554,-1053.0174,-245.61683)"
       id="g1535">
      <g
         id="g2882">
        <g
           style="fill:#000000;fill-opacity:1"
           id="g7448">
          <use
             xlink:href="#symbol5040"
             x="302.71701"
             y="93.917999"
             id="use1656"
             width="100%"
             height="100%" />
        </g>
      </g>
    </g>
    <g
       inkscape:label=""
       transform="matrix(3.2392554,0,0,3.2392554,-916.32392,-245.61683)"
       id="g1681">
      <g
         id="g8718">
        <g
           style="fill:#000000;fill-opacity:1"
           id="g4679">
          <use
             xlink:href="#symbol9888"
             x="302.875"
             y="93.917999"
             id="use7858"
             width="100%"
             height="100%" />
        </g>
      </g>
    </g>
    <g
       inkscape:label=""
       transform="matrix(3.2392554,0,0,3.2392554,-985.65195,-115.55796)"
       id="g1836">
      <g
         id="g3060">
        <g
           style="fill:#000000;fill-opacity:1"
           id="g5396">
          <use
             xlink:href="#symbol6236"
             x="303.02499"
             y="93.917999"
             id="use7160"
             width="100%"
             height="100%" />
        </g>
      </g>
    </g>
  </g>
</svg>
